<svg class="img-fluid" id="outputsvg" xmlns="http://www.w3.org/2000/svg" style="transform: none; transform-origin: 50% 50%; cursor: move; max-height: 347.98px;" width="419" height="363" viewBox="0 0 4190 3630"><g id="l3fQd1XIP89dTWM4T1gUfcB" fill="rgb(1, 96, 115)" style="transform: none;"><g style="transform: none;"><path id="pUsEsdsNL" d="M1964 3015 c2 -11 17 -49 32 -85 92 -216 -4 -567 -247 -911 -145 -206 -280 -366 -297 -355 -9 5 -12 119 -12 441 0 238 3 441 6 450 4 8 19 22 35 31 16 8 29 21 29 29 0 13 -43 15 -305 15 -332 0 -332 0 -275 -53 l30 -29 0 -692 c0 -672 -1 -693 -19 -713 -11 -12 -26 -23 -33 -26 -42 -15 32 -23 252 -27 l247 -5 78 -73 c42 -41 79 -72 81 -69 3 2 -3 31 -12 63 -30 112 -34 129 -34 179 0 70 30 167 85 277 46 89 106 184 342 534 189 280 243 404 243 554 0 160 -62 305 -186 437 -30 31 -44 41 -40 28z"></path><path id="p2NQZ0Rol" d="M2743 2613 c-29 -6 -29 -11 6 -50 l29 -33 4 -333 c5 -389 1 -477 -17 -477 -15 0 -299 294 -326 337 -15 24 -16 39 -8 108 9 80 -1 209 -21 260 -13 34 -61 108 -66 102 -2 -2 3 -20 11 -40 9 -23 15 -68 15 -120 0 -180 -58 -296 -303 -603 -142 -178 -196 -255 -248 -349 -64 -118 -80 -168 -86 -275 -7 -119 10 -191 74 -319 58 -115 119 -181 198 -210 124 -46 305 -9 305 64 0 25 -18 45 -40 45 -9 0 -38 -14 -65 -32 -34 -23 -63 -33 -102 -36 -182 -15 -283 91 -283 298 0 183 67 385 190 570 66 99 143 190 161 190 9 0 151 -134 315 -299 249 -249 306 -301 339 -310 54 -15 431 -15 441 0 3 6 -8 25 -25 43 l-32 33 0 674 c0 371 0 682 0 691 1 11 15 21 42 28 29 8 39 16 37 28 -3 15 -27 17 -263 18 -143 1 -270 -1 -282 -3z"></path></g></g></svg>