<?xml version="1.0" encoding="utf-8"?>
<svg class="img-fluid" id="outputsvg" xmlns="http://www.w3.org/2000/svg" style="transform: matrix(0.856831, 0, 0, 0.856831, 0, 0); transform-origin: 50% 50%; cursor: move; max-height: none; transition: transform 200ms ease-in-out;" width="2000" height="2000" viewBox="0 0 20000 20000"><g id="l63cdvzPwZzWWxmScYfBGpj" fill="rgb(255,201,14)" style="transform: none;"><g style="transform: none;"><path id="pVU2hSXzk" d="M 9967 19973 c -636 -3 -742 -5 -760 -18 -17 -12 -57 -15 -193 -15 -144 0 -173 -2 -178 -15 -4 -12 -27 -15 -119 -15 -90 0 -117 -3 -127 -15 -10 -11 -36 -15 -111 -15 -82 0 -100 -3 -108 -17 -7 -14 -26 -18 -88 -21 -43 -2 -91 -9 -108 -17 -19 -8 -48 -11 -77 -8 -38 4 -52 1 -74 -16 -20 -16 -41 -21 -86 -21 -39 0 -64 -5 -74 -15 -9 -9 -34 -15 -58 -15 -27 0 -48 -6 -56 -15 -9 -11 -32 -15 -82 -15 -48 0 -74 -5 -84 -15 -9 -9 -34 -15 -58 -15 -27 0 -48 -6 -56 -15 -8 -10 -30 -15 -62 -15 -31 0 -55 -6 -64 -15 -9 -8 -30 -15 -48 -15 -19 0 -39 -7 -46 -15 -8 -9 -30 -15 -57 -15 -30 0 -53 -7 -70 -20 -14 -11 -40 -20 -57 -20 -17 0 -40 -7 -50 -15 -11 -8 -31 -15 -45 -15 -14 0 -35 -7 -45 -15 -11 -8 -32 -15 -47 -15 -14 0 -32 -7 -39 -15 -7 -8 -29 -15 -50 -15 -24 0 -40 -5 -44 -15 -3 -10 -19 -15 -46 -15 -27 0 -43 -5 -46 -15 -4 -10 -19 -15 -43 -15 -21 0 -46 -7 -57 -15 -10 -8 -34 -15 -51 -15 -18 0 -33 -5 -33 -10 0 -13 -101 -60 -128 -60 -11 0 -25 -7 -32 -15 -7 -8 -23 -15 -36 -15 -13 0 -24 -4 -24 -10 0 -5 -17 -12 -37 -15 -21 -3 -46 -10 -55 -16 -10 -5 -31 -9 -47 -9 -39 0 -61 -9 -61 -26 0 -8 -10 -14 -24 -14 -13 0 -26 -7 -30 -15 -3 -8 -16 -15 -30 -15 -13 0 -26 -7 -30 -15 -3 -8 -17 -15 -30 -15 -14 0 -29 -6 -33 -12 -12 -19 -80 -48 -113 -48 -16 0 -32 -4 -35 -10 -8 -13 -103 -60 -121 -60 -8 0 -14 -4 -14 -10 0 -5 -6 -10 -14 -10 -7 0 -25 -9 -39 -20 -14 -11 -34 -20 -45 -20 -11 0 -22 -7 -26 -15 -3 -8 -16 -15 -30 -15 -13 0 -26 -7 -30 -15 -3 -8 -13 -15 -22 -15 -9 0 -27 -9 -41 -20 -14 -11 -34 -20 -44 -20 -11 0 -19 -4 -19 -10 0 -5 -10 -10 -21 -10 -12 0 -39 -16 -60 -35 -22 -19 -45 -35 -53 -35 -7 0 -19 -7 -26 -15 -7 -8 -20 -15 -30 -15 -10 0 -23 -7 -30 -15 -7 -8 -21 -15 -32 -15 -10 0 -31 -12 -46 -28 -27 -28 -164 -102 -188 -102 -7 0 -23 -13 -36 -30 -12 -17 -31 -30 -43 -30 -12 0 -34 -13 -50 -30 -16 -16 -37 -30 -47 -30 -9 0 -31 -13 -48 -30 -17 -16 -37 -30 -45 -30 -8 0 -15 -4 -15 -9 0 -5 -15 -14 -32 -22 -18 -7 -48 -25 -66 -41 -18 -15 -39 -28 -47 -28 -8 0 -33 -20 -57 -45 -24 -25 -52 -45 -63 -45 -21 0 -46 -23 -58 -53 -3 -9 -17 -17 -30 -17 -14 0 -41 -16 -66 -40 -23 -22 -52 -42 -65 -46 -13 -3 -42 -25 -65 -50 -22 -24 -48 -44 -57 -44 -9 0 -36 -20 -61 -45 -25 -24 -55 -47 -67 -51 -12 -4 -49 -33 -83 -65 -34 -33 -68 -59 -77 -59 -16 0 -116 -95 -116 -110 0 -6 -3 -10 -7 -10 -5 0 -25 -16 -46 -35 -21 -19 -44 -35 -51 -35 -7 0 -89 -76 -182 -170 -93 -93 -177 -170 -186 -170 -22 0 -248 -226 -248 -248 0 -9 -77 -93 -170 -186 -94 -93 -170 -177 -170 -185 0 -8 -43 -57 -95 -108 -52 -51 -95 -101 -95 -111 0 -10 -29 -47 -65 -82 -36 -35 -65 -72 -65 -82 0 -18 -33 -58 -48 -58 -9 0 -42 -53 -42 -69 0 -5 -20 -29 -45 -53 -25 -24 -45 -52 -45 -63 0 -11 -22 -40 -50 -65 -29 -26 -50 -54 -50 -65 0 -11 -13 -31 -30 -45 -16 -14 -30 -34 -30 -45 0 -11 -20 -40 -45 -64 -25 -24 -45 -51 -45 -60 0 -9 -9 -24 -20 -34 -11 -9 -20 -25 -20 -35 0 -10 -13 -32 -30 -48 -16 -16 -30 -37 -30 -47 0 -10 -7 -20 -15 -23 -8 -4 -15 -12 -15 -20 0 -8 -4 -14 -10 -14 -5 0 -13 -12 -16 -27 -4 -15 -20 -38 -36 -51 -15 -13 -28 -32 -28 -41 0 -10 -16 -31 -35 -48 -20 -18 -35 -41 -35 -53 0 -12 -7 -28 -15 -36 -8 -9 -15 -24 -15 -34 0 -10 -7 -20 -15 -24 -8 -3 -15 -16 -15 -28 0 -14 -13 -34 -30 -48 -17 -14 -30 -34 -30 -48 0 -12 -7 -25 -15 -28 -8 -4 -15 -16 -15 -28 0 -11 -16 -37 -35 -56 -19 -19 -35 -42 -35 -51 0 -9 -7 -22 -15 -29 -8 -7 -15 -21 -15 -32 0 -10 -7 -21 -15 -24 -8 -4 -15 -18 -15 -34 0 -16 -7 -30 -15 -34 -8 -3 -15 -16 -15 -30 0 -13 -7 -26 -15 -30 -8 -3 -15 -16 -15 -30 0 -13 -7 -26 -15 -30 -8 -3 -15 -17 -15 -31 0 -14 -7 -28 -15 -31 -9 -4 -15 -19 -15 -35 0 -19 -5 -29 -15 -29 -9 0 -18 -12 -21 -30 -4 -16 -13 -35 -20 -41 -8 -6 -14 -19 -14 -29 0 -10 -7 -20 -15 -24 -10 -3 -15 -19 -15 -45 0 -22 -5 -43 -10 -46 -6 -3 -10 -16 -10 -28 0 -12 -9 -28 -20 -35 -11 -7 -20 -23 -20 -37 0 -14 -7 -28 -15 -31 -8 -4 -15 -17 -15 -30 0 -14 -7 -27 -15 -30 -9 -4 -15 -19 -15 -37 0 -31 -34 -112 -51 -123 -5 -3 -9 -20 -9 -38 0 -20 -8 -40 -20 -51 -11 -10 -20 -28 -20 -40 0 -13 -7 -25 -15 -29 -9 -3 -15 -19 -15 -41 0 -20 -7 -43 -15 -51 -8 -9 -15 -24 -15 -34 0 -10 -7 -20 -15 -24 -10 -3 -15 -19 -15 -45 0 -22 -7 -46 -15 -55 -8 -8 -15 -27 -15 -43 0 -15 -7 -37 -15 -47 -8 -11 -15 -35 -15 -53 0 -21 -6 -36 -15 -39 -10 -4 -15 -20 -15 -45 0 -26 -5 -42 -15 -45 -10 -4 -15 -20 -15 -44 0 -24 -7 -43 -20 -55 -12 -11 -20 -31 -20 -50 0 -18 -7 -38 -15 -45 -8 -7 -15 -28 -15 -47 0 -19 -7 -42 -16 -51 -12 -11 -15 -27 -11 -59 4 -36 1 -47 -14 -56 -14 -9 -19 -24 -19 -62 0 -28 -7 -59 -15 -69 -8 -11 -15 -35 -15 -53 0 -21 -6 -36 -15 -39 -11 -5 -15 -21 -15 -61 0 -35 -5 -60 -15 -69 -10 -11 -15 -36 -15 -80 0 -48 -4 -66 -15 -70 -11 -4 -15 -21 -15 -58 0 -39 -5 -58 -21 -75 -18 -19 -20 -30 -14 -81 6 -53 5 -59 -15 -70 -20 -11 -22 -17 -15 -74 5 -55 4 -64 -14 -80 -18 -16 -21 -31 -21 -98 0 -59 -4 -84 -16 -95 -13 -13 -14 -31 -8 -105 6 -84 5 -90 -15 -104 -19 -14 -21 -24 -21 -130 0 -93 -3 -116 -15 -120 -13 -5 -15 -35 -15 -184 0 -146 -3 -180 -15 -190 -13 -11 -15 -109 -15 -775 0 -666 2 -764 15 -775 12 -10 15 -42 15 -172 0 -132 3 -160 15 -164 12 -5 15 -28 15 -120 0 -101 2 -116 20 -134 18 -18 20 -33 20 -129 0 -63 4 -112 10 -116 6 -3 10 -37 10 -76 0 -56 4 -73 20 -89 16 -16 20 -34 20 -92 1 -49 6 -80 15 -93 11 -14 13 -32 9 -66 -5 -39 -2 -54 15 -82 12 -19 21 -52 21 -73 0 -22 7 -48 15 -58 10 -13 15 -43 15 -83 0 -47 4 -65 15 -69 11 -4 15 -21 15 -58 0 -30 6 -60 15 -72 8 -10 15 -33 15 -50 0 -19 6 -34 15 -38 11 -4 15 -20 15 -57 0 -36 6 -58 20 -76 11 -14 20 -38 20 -54 0 -15 4 -31 10 -34 5 -3 10 -30 10 -58 0 -40 5 -57 20 -70 12 -10 20 -29 20 -49 0 -18 7 -42 15 -52 8 -11 15 -32 15 -47 0 -14 7 -32 15 -39 8 -7 15 -27 15 -44 0 -17 7 -40 15 -50 8 -11 15 -34 15 -52 0 -19 6 -34 15 -38 10 -3 15 -19 15 -44 0 -21 7 -47 15 -58 8 -10 15 -33 15 -50 0 -17 7 -37 15 -44 8 -7 15 -17 15 -22 0 -5 9 -21 20 -35 11 -14 20 -36 20 -49 0 -12 8 -37 17 -56 9 -18 22 -45 30 -60 7 -14 13 -35 13 -46 0 -24 30 -84 48 -95 6 -4 12 -25 12 -46 0 -22 6 -44 15 -51 8 -7 15 -20 15 -30 0 -10 7 -23 15 -30 8 -7 15 -23 15 -36 0 -13 4 -24 10 -24 15 0 50 -80 50 -116 0 -18 5 -36 10 -39 6 -4 24 -36 41 -71 17 -35 35 -64 40 -64 5 0 9 -11 9 -24 0 -13 7 -29 15 -36 8 -7 15 -21 15 -32 0 -10 7 -21 15 -24 8 -4 15 -16 15 -29 0 -12 7 -28 15 -35 8 -7 15 -23 15 -35 0 -13 7 -25 15 -29 8 -3 15 -16 15 -29 0 -13 9 -32 20 -42 11 -10 20 -25 20 -34 0 -9 14 -29 30 -44 17 -16 30 -37 30 -47 0 -10 7 -20 15 -24 8 -3 15 -17 15 -31 0 -14 7 -28 15 -31 8 -4 15 -18 15 -33 0 -16 11 -37 30 -54 17 -16 30 -37 30 -48 0 -10 4 -19 10 -19 5 0 19 -20 31 -45 12 -25 25 -45 30 -45 10 0 59 -96 59 -116 0 -7 13 -23 30 -36 16 -12 30 -31 30 -42 0 -10 7 -26 15 -35 8 -9 23 -26 35 -38 11 -13 20 -31 20 -42 0 -10 11 -26 24 -35 14 -8 28 -26 32 -38 3 -13 20 -38 35 -56 16 -18 29 -37 29 -42 0 -6 14 -29 30 -52 17 -22 30 -44 30 -48 0 -5 14 -22 30 -40 17 -18 30 -39 30 -47 0 -8 18 -30 39 -50 22 -19 46 -51 54 -72 8 -20 33 -52 56 -71 22 -19 41 -44 41 -55 0 -11 25 -45 56 -75 31 -30 62 -68 69 -85 7 -16 32 -48 54 -70 22 -22 41 -46 41 -54 0 -8 20 -34 45 -58 25 -23 45 -45 45 -47 0 -2 29 -32 65 -67 36 -34 65 -69 65 -76 0 -21 32 -55 273 -290 37 -36 67 -70 67 -74 0 -5 7 -9 15 -9 9 0 15 -9 15 -24 0 -27 134 -166 161 -166 9 0 31 -16 50 -36 51 -55 181 -184 204 -202 11 -10 34 -34 49 -55 17 -22 41 -40 57 -44 18 -3 67 -44 137 -114 60 -60 115 -109 123 -109 8 0 33 -20 57 -45 24 -25 51 -45 60 -45 9 0 47 -29 84 -65 38 -37 77 -65 88 -65 11 0 23 -8 27 -18 10 -26 65 -71 89 -72 13 0 39 -20 65 -50 24 -27 51 -50 61 -50 9 0 29 -13 45 -30 15 -16 36 -30 46 -30 9 0 39 -22 65 -50 28 -30 57 -50 69 -50 12 0 25 -4 28 -10 3 -5 13 -10 22 -10 9 0 33 -16 54 -35 22 -19 44 -35 50 -35 6 0 24 -13 39 -30 17 -19 38 -30 54 -30 19 0 29 -7 36 -24 6 -18 20 -27 45 -32 20 -3 39 -13 42 -20 3 -8 13 -14 22 -14 9 0 32 -13 51 -30 19 -16 43 -29 52 -30 10 0 23 -9 30 -20 7 -11 21 -20 32 -20 10 0 32 -14 48 -30 15 -17 37 -30 47 -30 10 0 24 -7 31 -15 7 -8 23 -15 35 -15 13 0 25 -7 29 -15 3 -8 14 -15 24 -15 19 0 62 -34 62 -50 0 -6 11 -10 25 -10 14 0 30 -9 37 -20 8 -12 24 -20 40 -20 15 0 30 -4 33 -10 3 -5 15 -10 26 -10 10 0 24 -9 31 -20 7 -11 22 -20 34 -20 12 0 27 -7 34 -15 7 -8 21 -15 32 -15 10 0 21 -7 24 -15 4 -8 18 -15 34 -15 16 0 30 -7 34 -15 3 -8 14 -15 24 -15 11 0 25 -7 32 -15 7 -8 20 -15 30 -15 9 0 25 -9 35 -20 12 -13 31 -20 57 -20 21 0 38 -4 38 -10 0 -5 11 -10 25 -10 14 0 30 -9 37 -20 7 -11 23 -20 35 -20 13 0 23 -4 23 -10 0 -5 11 -12 25 -16 13 -3 29 -12 36 -20 6 -8 30 -14 54 -14 29 0 45 -5 49 -15 3 -8 15 -15 26 -15 11 0 23 -7 26 -15 4 -10 20 -15 44 -15 24 0 43 -7 55 -20 10 -11 29 -20 42 -20 12 0 23 -4 23 -10 0 -5 11 -10 25 -10 14 0 30 -9 37 -20 7 -11 23 -20 35 -20 13 0 23 -4 23 -10 0 -5 18 -10 40 -10 29 0 43 -5 52 -20 12 -18 24 -20 134 -20 99 0 123 3 128 15 3 9 18 15 40 15 19 0 41 7 50 15 8 8 22 15 30 15 20 0 126 102 126 122 0 8 7 23 15 34 8 10 15 33 15 51 0 20 7 37 19 45 19 13 19 54 20 1851 0 1514 -2 1838 -13 1844 -7 5 -25 33 -39 63 -30 64 -108 150 -135 150 -10 0 -28 14 -40 30 -13 18 -32 30 -45 30 -12 0 -37 16 -56 35 -19 19 -42 35 -53 35 -10 0 -21 7 -24 15 -4 8 -17 15 -31 15 -17 0 -39 16 -71 50 -25 28 -52 50 -59 50 -13 0 -62 38 -92 73 -8 9 -23 17 -31 17 -9 0 -37 20 -62 45 -26 25 -53 45 -60 45 -8 0 -38 23 -67 50 -29 28 -60 50 -68 50 -7 0 -67 54 -132 120 -65 66 -126 120 -135 120 -22 0 -286 262 -286 283 0 9 -63 79 -140 157 -79 79 -140 148 -140 159 0 10 -18 33 -39 50 -22 18 -46 49 -54 70 -8 20 -36 55 -61 76 -25 22 -46 48 -46 57 0 18 -28 56 -62 87 -10 8 -18 25 -18 36 0 12 -20 36 -50 60 -32 26 -49 48 -50 63 0 13 -13 34 -30 49 -17 13 -30 35 -30 47 0 12 -9 29 -20 39 -11 9 -20 22 -20 29 0 7 -14 28 -30 47 -17 18 -30 40 -30 48 0 8 -7 21 -15 29 -8 9 -15 23 -15 33 0 10 -12 28 -26 42 -14 13 -30 33 -35 44 -5 11 -13 27 -18 35 -28 49 -41 80 -41 98 0 11 -7 22 -15 26 -8 3 -15 17 -15 30 0 14 -6 29 -13 33 -14 9 -57 87 -57 104 0 6 -7 17 -15 25 -8 9 -15 24 -15 33 0 10 -7 24 -15 31 -8 7 -15 20 -15 30 0 10 -7 23 -15 30 -8 7 -15 27 -15 45 0 18 -7 38 -15 45 -8 7 -15 20 -15 30 0 10 -7 23 -15 30 -9 7 -15 29 -15 51 0 21 -6 42 -13 46 -19 12 -57 90 -57 118 0 13 -7 30 -15 39 -8 8 -15 27 -15 42 0 28 -35 109 -51 120 -5 3 -9 22 -9 44 0 24 -5 40 -15 44 -11 4 -15 20 -15 55 0 31 -6 55 -15 65 -8 8 -15 30 -15 49 0 21 -7 41 -20 52 -14 13 -20 31 -20 64 0 25 -7 55 -15 65 -8 11 -15 38 -15 60 0 23 -7 50 -15 60 -9 12 -15 43 -15 80 -1 39 -6 68 -16 81 -11 15 -13 33 -8 72 5 44 3 56 -15 79 -18 23 -21 40 -21 119 0 73 -3 94 -15 99 -12 4 -15 26 -15 106 0 80 -3 102 -15 106 -13 5 -15 81 -15 595 0 515 2 590 15 595 12 5 15 29 15 125 0 97 3 121 15 125 12 5 15 25 15 94 0 69 3 89 15 94 11 4 15 21 15 64 0 36 6 66 15 78 9 12 14 43 15 85 0 54 4 69 21 85 18 16 20 27 16 66 -5 41 -3 49 14 59 16 8 20 19 18 61 -2 38 2 54 14 63 11 8 17 26 17 54 0 30 4 41 15 41 11 0 15 13 15 54 0 35 5 58 15 66 8 7 15 27 15 45 0 19 8 39 20 50 12 11 20 31 20 51 0 18 5 36 10 39 6 3 10 14 10 24 0 10 9 30 20 44 11 14 20 39 20 55 0 17 5 34 10 37 6 3 10 19 10 34 0 16 9 40 20 54 11 14 20 34 20 45 0 11 7 22 15 26 8 3 15 14 15 25 0 11 7 26 15 35 8 8 15 32 15 54 0 26 5 42 15 46 8 3 15 16 15 30 0 13 7 26 15 30 8 3 15 17 15 31 0 14 4 25 9 25 9 0 81 142 81 159 0 4 9 18 20 31 11 13 20 32 20 42 0 10 7 21 15 24 8 4 15 17 15 30 0 14 7 27 15 30 8 4 15 16 15 28 0 12 14 32 30 46 17 14 30 34 30 46 0 12 7 27 15 34 8 7 15 21 15 32 0 11 11 29 25 40 14 11 32 35 40 54 8 19 19 34 24 34 6 0 11 10 11 23 0 13 14 36 30 52 16 16 30 38 30 50 0 13 18 36 45 59 25 22 45 46 45 56 0 9 23 40 50 69 28 29 50 59 50 68 0 9 20 36 45 60 25 23 45 52 45 63 0 21 33 60 50 60 6 0 10 6 10 14 0 8 9 18 20 21 12 4 20 15 20 28 0 13 24 45 60 81 33 33 60 63 60 68 0 4 5 8 10 8 13 0 50 37 50 50 0 6 5 10 11 10 16 0 48 42 49 65 0 12 21 37 50 60 27 22 49 43 50 47 1 16 206 208 223 208 10 0 73 56 140 125 76 78 130 125 143 125 17 0 54 31 54 45 0 13 42 45 60 45 11 0 41 23 68 50 27 28 56 50 65 50 9 0 38 20 64 45 26 24 55 45 64 45 9 0 33 20 55 45 25 30 46 45 62 45 14 0 34 12 49 30 13 17 33 30 42 30 10 0 30 14 46 30 16 17 37 30 47 30 10 0 23 9 30 20 8 12 24 20 39 20 15 0 29 7 33 15 3 8 17 15 31 15 16 0 25 6 25 15 0 8 6 15 14 15 8 0 16 7 20 15 3 8 14 15 24 15 11 0 25 7 32 15 7 8 23 15 36 15 13 0 28 9 34 20 6 12 21 20 35 20 14 0 25 5 25 10 0 6 8 10 19 10 10 0 30 9 44 20 14 11 34 20 45 20 11 0 22 7 26 15 3 8 15 15 26 15 11 0 23 7 26 15 4 8 18 15 34 15 16 0 30 7 34 15 3 8 14 15 24 15 11 0 25 7 32 15 7 8 29 15 50 15 24 0 40 5 44 15 3 8 17 15 31 15 14 0 28 7 31 15 4 8 18 15 33 15 15 0 31 8 39 20 9 14 23 20 51 20 25 0 41 5 45 15 3 8 14 15 24 15 11 0 25 7 32 15 7 9 29 15 51 15 39 0 39 0 39 -1839 0 -1622 2 -1840 15 -1851 10 -8 15 -30 15 -65 0 -35 5 -57 15 -65 8 -7 15 -26 15 -42 0 -16 7 -36 15 -44 8 -9 15 -30 15 -48 0 -19 7 -39 15 -46 9 -7 15 -29 15 -51 0 -22 4 -39 9 -39 10 0 61 -94 61 -112 0 -6 14 -26 30 -45 17 -18 30 -40 30 -47 0 -8 7 -19 15 -26 8 -7 15 -18 15 -26 0 -7 19 -32 41 -56 23 -24 47 -57 54 -73 7 -17 45 -61 84 -99 38 -38 71 -79 73 -90 2 -12 11 -22 22 -24 10 -2 52 -37 94 -78 41 -41 82 -74 91 -74 9 0 40 -22 70 -50 30 -27 59 -50 65 -50 6 0 20 -7 30 -15 11 -8 27 -15 36 -15 9 0 26 -13 38 -30 15 -19 31 -30 48 -30 13 0 27 -7 30 -15 4 -8 16 -15 29 -15 12 0 30 -9 40 -20 11 -12 31 -20 51 -20 18 0 34 -5 36 -11 2 -5 23 -13 47 -16 23 -3 45 -12 48 -19 3 -8 20 -14 42 -14 20 0 45 -7 55 -15 11 -9 41 -15 68 -15 34 0 50 -5 54 -15 5 -12 25 -15 91 -15 62 0 88 -4 99 -15 13 -13 57 -15 273 -15 218 0 261 2 271 15 9 11 32 15 80 15 51 0 69 4 74 15 4 11 20 15 56 15 36 0 52 4 56 15 5 11 22 15 64 15 39 0 62 5 70 15 7 8 21 15 32 15 10 0 21 7 24 15 4 10 20 15 44 15 24 0 43 7 55 20 10 11 29 20 42 20 12 0 23 5 23 10 0 6 11 10 24 10 16 0 35 12 53 34 15 18 40 36 56 40 15 3 27 11 27 16 0 6 9 10 20 10 11 0 33 14 48 30 16 17 37 30 47 30 10 0 27 10 39 23 12 12 40 39 62 59 21 21 48 47 58 58 11 11 25 20 32 20 21 0 94 75 94 96 1 11 29 43 65 74 35 30 64 61 64 68 1 7 8 15 16 18 8 4 15 16 15 28 1 11 14 32 30 46 17 13 30 31 30 40 0 8 14 30 30 48 17 18 30 42 30 53 0 11 7 22 15 25 8 4 15 10 15 16 0 16 48 116 59 123 6 3 11 21 11 39 0 19 7 39 15 46 8 7 15 23 15 35 0 13 7 25 15 29 10 3 15 19 15 45 0 22 5 43 10 46 6 3 10 26 10 51 0 31 6 50 20 64 17 17 20 33 20 99 0 57 4 84 15 95 13 13 15 437 15 3703 -1 3227 -2 3690 -15 3707 -8 11 -15 30 -15 42 0 12 -7 24 -15 28 -8 3 -15 14 -15 26 0 12 -29 49 -72 90 -60 58 -78 70 -105 70 -21 0 -36 6 -39 15 -5 12 -32 15 -159 15 -120 0 -155 3 -164 14 -9 11 -39 14 -123 14 -92 0 -112 2 -120 16 -8 14 -32 16 -167 16 -145 0 -159 2 -176 20 -12 13 -29 19 -49 18 -17 -2 -363 -4 -769 -5 z "></path><path id="p1FPu5q14K" d="M 13086 19395 c -11 -8 -29 -15 -40 -15 -12 0 -30 -7 -40 -15 -11 -8 -28 -15 -37 -15 -28 0 -129 -106 -129 -134 0 -13 -7 -26 -15 -30 -9 -3 -15 -18 -15 -39 0 -19 -7 -40 -15 -47 -13 -11 -15 -220 -15 -1770 0 -1550 2 -1759 15 -1770 8 -7 15 -27 15 -44 0 -18 7 -41 15 -52 8 -10 15 -25 15 -32 0 -7 13 -25 29 -40 16 -15 31 -38 33 -52 2 -18 10 -26 27 -28 14 -2 37 -17 52 -33 15 -16 37 -29 48 -29 12 0 24 -7 27 -15 4 -8 16 -15 29 -15 12 0 28 -7 35 -15 7 -8 20 -15 30 -15 10 0 32 -16 49 -35 18 -21 40 -35 53 -35 14 0 31 -11 43 -30 13 -19 28 -30 44 -30 13 0 36 -13 53 -30 15 -16 34 -30 42 -30 8 0 36 -22 62 -50 26 -27 57 -50 67 -50 11 0 39 -20 63 -45 24 -25 52 -45 64 -45 11 0 23 -7 26 -15 4 -8 11 -15 18 -15 6 0 20 -14 31 -30 11 -17 29 -30 40 -30 12 0 47 -27 82 -62 34 -35 94 -94 132 -132 39 -38 71 -73 71 -77 0 -5 10 -9 23 -9 14 0 52 -30 112 -91 50 -50 118 -118 153 -151 34 -33 62 -68 62 -77 1 -18 33 -61 47 -61 4 0 17 -14 28 -30 11 -16 26 -30 33 -30 6 0 12 -4 12 -9 0 -4 36 -44 80 -87 53 -52 80 -87 80 -101 0 -14 6 -23 15 -23 8 0 15 -4 15 -8 0 -5 13 -22 30 -38 16 -16 30 -38 30 -49 0 -11 20 -38 45 -59 26 -23 45 -48 45 -60 0 -11 22 -41 50 -68 28 -26 50 -56 50 -65 1 -10 14 -29 30 -43 17 -13 30 -33 30 -45 1 -22 32 -65 49 -65 6 0 11 -12 11 -26 0 -16 10 -34 26 -47 15 -11 33 -34 40 -51 8 -17 18 -38 23 -46 28 -50 41 -80 41 -93 0 -9 14 -25 30 -37 19 -13 30 -30 30 -45 0 -12 7 -25 15 -29 8 -3 15 -15 15 -27 0 -11 9 -32 20 -46 11 -14 20 -32 20 -39 0 -8 5 -14 10 -14 6 0 10 -6 10 -12 0 -19 82 -178 91 -178 5 0 9 -11 9 -24 0 -13 7 -29 15 -36 8 -7 15 -23 15 -35 0 -12 7 -28 15 -35 8 -7 15 -18 15 -25 0 -7 7 -18 15 -25 9 -7 15 -29 15 -52 0 -25 5 -41 15 -44 8 -4 15 -15 15 -26 0 -11 9 -31 20 -45 11 -14 20 -35 20 -46 0 -23 37 -104 51 -113 5 -3 9 -22 9 -42 0 -20 7 -46 15 -56 8 -11 15 -32 15 -47 0 -14 7 -32 15 -39 8 -7 15 -28 15 -47 0 -21 6 -36 15 -39 11 -5 15 -22 15 -64 0 -39 5 -62 15 -70 8 -7 15 -25 15 -41 0 -16 9 -38 20 -49 15 -15 20 -33 20 -74 0 -30 4 -57 9 -60 4 -3 11 -27 15 -53 4 -27 13 -57 21 -67 9 -12 15 -43 15 -80 1 -38 6 -68 15 -80 9 -12 15 -42 15 -78 0 -43 4 -60 15 -64 12 -5 15 -25 15 -94 0 -69 3 -89 15 -94 12 -4 15 -26 15 -111 0 -85 3 -107 15 -111 13 -5 15 -82 15 -604 0 -519 -2 -599 -15 -610 -12 -10 -15 -37 -15 -127 0 -92 -3 -115 -15 -119 -12 -5 -15 -25 -15 -95 0 -79 -2 -89 -21 -99 -19 -11 -20 -17 -13 -91 6 -67 4 -80 -10 -85 -12 -5 -16 -20 -16 -65 0 -48 -3 -60 -20 -69 -16 -9 -20 -21 -20 -65 0 -29 -4 -57 -10 -60 -5 -3 -10 -31 -10 -62 0 -46 -3 -56 -20 -60 -16 -4 -20 -14 -20 -45 0 -22 -7 -46 -15 -54 -9 -10 -15 -34 -15 -65 0 -35 -4 -51 -15 -55 -10 -4 -15 -20 -15 -44 0 -21 -7 -43 -15 -50 -8 -7 -15 -27 -15 -45 0 -18 -7 -38 -15 -45 -9 -7 -15 -29 -15 -52 0 -25 -5 -41 -15 -44 -8 -4 -15 -17 -15 -30 0 -14 -7 -27 -15 -30 -10 -4 -15 -20 -15 -45 0 -28 -6 -42 -20 -51 -12 -8 -20 -24 -20 -39 0 -15 -7 -29 -15 -33 -8 -3 -15 -17 -15 -31 0 -16 -6 -25 -15 -25 -11 0 -15 -11 -15 -39 0 -22 -6 -44 -15 -51 -8 -7 -15 -20 -15 -30 0 -9 -9 -25 -20 -35 -11 -10 -20 -29 -20 -42 0 -12 -4 -23 -10 -23 -5 0 -10 -11 -10 -25 0 -14 -7 -28 -15 -31 -8 -4 -15 -17 -15 -30 0 -13 -9 -29 -20 -36 -11 -7 -20 -22 -20 -34 0 -12 -7 -24 -15 -28 -8 -3 -15 -17 -15 -31 0 -14 -7 -28 -15 -31 -8 -4 -15 -16 -15 -28 0 -11 -7 -30 -15 -40 -8 -11 -15 -26 -15 -34 0 -7 -13 -25 -30 -39 -16 -13 -30 -33 -30 -43 0 -10 -7 -23 -15 -30 -8 -7 -15 -22 -15 -34 0 -12 -9 -27 -20 -34 -11 -7 -20 -23 -20 -36 0 -15 -12 -34 -30 -49 -17 -14 -30 -33 -30 -43 0 -9 -13 -30 -30 -46 -16 -15 -30 -37 -30 -47 0 -10 -20 -38 -45 -62 -25 -24 -45 -50 -45 -57 0 -7 -22 -36 -50 -64 -27 -28 -50 -59 -50 -69 0 -10 -20 -37 -45 -61 -25 -24 -45 -50 -45 -60 0 -9 -13 -29 -30 -45 -16 -15 -30 -36 -30 -46 0 -10 -63 -80 -140 -156 -78 -78 -140 -147 -140 -158 0 -19 -200 -223 -219 -223 -6 0 -11 -5 -11 -11 0 -16 -48 -59 -65 -59 -8 0 -78 -63 -155 -140 -78 -77 -146 -140 -152 -140 -6 0 -36 -20 -66 -45 -30 -25 -58 -45 -63 -45 -4 0 -29 -20 -56 -45 -26 -25 -55 -45 -63 -45 -9 0 -29 -14 -43 -30 -15 -17 -32 -30 -37 -30 -6 0 -10 -6 -10 -12 0 -14 -59 -58 -77 -58 -6 0 -23 -13 -36 -30 -14 -17 -35 -30 -46 -30 -22 0 -61 -32 -61 -50 0 -5 -13 -10 -30 -10 -16 0 -30 -4 -30 -10 0 -5 -20 -19 -44 -31 -25 -11 -50 -27 -57 -35 -6 -8 -19 -14 -29 -14 -9 0 -27 -9 -40 -20 -13 -11 -28 -20 -35 -20 -6 0 -24 -13 -40 -30 -16 -16 -36 -30 -46 -30 -9 0 -19 -7 -23 -15 -3 -8 -17 -15 -31 -15 -14 0 -25 -4 -25 -10 0 -5 -12 -13 -27 -16 -16 -4 -34 -12 -42 -18 -22 -17 -224 -116 -237 -116 -6 0 -14 -7 -18 -15 -3 -8 -16 -15 -30 -15 -13 0 -26 -7 -30 -15 -3 -9 -18 -15 -38 -15 -31 0 -113 -33 -124 -51 -3 -5 -16 -9 -29 -9 -12 0 -25 -7 -29 -15 -3 -10 -19 -15 -45 -15 -22 0 -44 -6 -48 -13 -13 -21 -91 -57 -123 -57 -16 0 -32 -5 -35 -10 -4 -6 -11 -8 -16 -5 -5 4 -9 683 -9 1746 0 1537 -2 1740 -15 1745 -12 5 -15 25 -15 94 0 79 -2 89 -19 95 -17 5 -19 13 -14 60 5 45 3 56 -11 61 -10 4 -16 18 -16 38 0 18 -9 41 -20 54 -11 12 -20 30 -20 42 0 11 -4 20 -10 20 -5 0 -10 18 -10 39 0 22 -4 43 -10 46 -10 6 -90 165 -90 179 0 4 -13 19 -30 33 -17 14 -30 35 -30 47 0 12 -13 33 -30 46 -16 14 -29 34 -30 45 0 11 -27 47 -61 80 -33 33 -69 69 -80 79 -10 11 -19 27 -19 36 0 18 -74 90 -93 90 -7 0 -49 36 -95 80 -45 44 -89 80 -98 80 -8 0 -27 14 -41 30 -14 17 -35 30 -47 30 -13 0 -31 12 -44 30 -13 17 -28 30 -35 30 -8 0 -40 14 -72 30 -32 17 -64 30 -70 30 -7 0 -20 9 -30 20 -11 12 -31 20 -50 20 -18 0 -38 7 -45 15 -7 8 -20 15 -29 15 -10 0 -26 7 -37 15 -10 8 -33 15 -50 15 -19 0 -34 6 -38 15 -4 11 -21 15 -59 15 -31 0 -61 6 -73 15 -13 10 -44 14 -96 15 -62 0 -79 3 -87 17 -9 16 -32 17 -282 14 -232 -3 -275 -5 -285 -18 -9 -13 -25 -15 -92 -9 -75 7 -82 6 -94 -13 -10 -17 -23 -21 -64 -21 -37 0 -54 -4 -58 -15 -3 -9 -18 -15 -38 -15 -18 0 -42 -7 -52 -15 -11 -8 -29 -15 -41 -15 -11 0 -28 -9 -38 -20 -9 -11 -27 -20 -38 -20 -12 0 -51 -14 -86 -30 -34 -17 -67 -30 -73 -30 -5 0 -19 -13 -32 -30 -13 -18 -31 -30 -44 -30 -12 0 -24 -7 -28 -15 -3 -8 -15 -15 -27 -15 -12 0 -35 -13 -50 -30 -16 -16 -39 -32 -52 -35 -13 -4 -52 -36 -88 -72 -35 -36 -77 -72 -94 -79 -41 -17 -95 -69 -95 -91 0 -10 -36 -53 -80 -97 -44 -43 -80 -86 -80 -95 0 -10 -13 -31 -30 -47 -16 -16 -30 -36 -30 -45 0 -9 -7 -22 -15 -29 -8 -7 -15 -20 -15 -29 0 -10 -16 -32 -35 -51 -20 -19 -35 -44 -35 -57 0 -13 -4 -23 -10 -23 -5 0 -10 -11 -10 -25 0 -14 -8 -29 -20 -35 -15 -8 -20 -21 -20 -49 0 -25 -5 -41 -15 -45 -8 -3 -15 -17 -15 -31 0 -14 -7 -28 -15 -31 -11 -5 -15 -21 -15 -61 0 -35 -5 -60 -15 -69 -9 -10 -15 -34 -15 -65 0 -35 -4 -51 -15 -55 -13 -5 -15 -430 -15 -3739 0 -3306 2 -3734 15 -3745 8 -7 15 -28 15 -47 0 -21 6 -36 15 -39 8 -4 15 -16 15 -28 0 -27 105 -136 131 -136 10 0 19 -4 19 -10 0 -5 17 -10 38 -10 26 0 45 -7 57 -20 10 -11 28 -20 41 -20 12 0 24 -5 26 -10 2 -6 47 -12 101 -14 74 -2 104 -7 118 -20 15 -12 41 -16 118 -16 68 0 108 -5 127 -15 22 -11 67 -15 195 -15 136 0 169 -3 179 -15 11 -13 109 -15 775 -15 669 0 764 2 769 15 4 12 32 15 164 15 130 0 162 3 172 15 10 12 38 15 129 15 108 0 117 2 130 21 12 21 18 22 122 16 88 -5 111 -4 123 8 10 11 37 15 94 15 66 0 82 3 97 20 15 16 31 20 85 20 51 0 69 4 74 15 4 11 22 15 74 15 50 0 73 4 82 15 8 10 31 15 65 15 38 0 55 4 59 15 4 11 22 15 76 15 54 0 72 4 76 15 5 11 22 15 64 15 42 0 59 4 64 15 3 9 18 15 39 15 19 0 40 7 47 15 8 10 30 15 65 15 39 0 56 5 70 20 11 12 31 20 52 20 18 0 33 5 33 10 0 6 24 10 54 10 38 0 60 6 79 20 14 11 39 20 55 20 17 0 32 6 36 15 3 10 19 15 44 15 23 0 45 6 52 15 7 8 29 15 50 15 24 0 40 5 44 15 3 9 18 15 40 15 19 0 41 7 50 15 8 8 30 15 49 15 21 0 41 7 52 20 11 12 31 20 51 20 18 0 36 5 39 10 3 6 14 10 24 10 10 0 26 9 36 20 12 13 31 20 55 20 24 0 40 5 44 15 3 8 16 15 29 15 14 0 30 7 37 15 7 8 27 15 45 15 18 0 38 6 44 14 7 8 23 17 36 20 14 4 25 11 25 16 0 6 20 10 44 10 30 0 46 5 50 15 3 8 14 15 24 15 11 0 25 7 32 15 7 8 20 15 30 15 9 0 25 9 35 20 10 11 29 20 42 20 12 0 23 5 23 10 0 6 17 10 38 10 26 0 45 7 57 20 10 11 26 20 35 20 10 0 23 7 30 15 7 8 21 15 32 15 10 0 21 7 24 15 4 8 18 15 34 15 16 0 30 7 34 15 3 8 16 15 30 15 13 0 26 7 30 15 3 8 16 15 30 15 13 0 26 7 30 15 3 8 17 15 31 15 14 0 28 7 31 15 4 8 16 15 29 15 12 0 30 9 40 20 10 11 26 20 35 20 10 0 20 7 24 15 3 8 16 15 29 15 13 0 37 13 53 30 16 16 37 30 47 30 10 0 20 7 23 15 4 8 18 15 33 15 16 1 35 12 51 30 13 17 33 30 45 30 11 0 26 9 33 20 7 11 23 20 36 20 13 0 26 7 30 15 3 8 16 15 28 15 13 1 34 14 48 30 14 17 34 30 47 30 13 0 31 12 44 29 13 18 34 32 54 35 19 4 40 17 49 31 9 14 23 25 32 25 8 0 31 16 51 35 20 19 46 35 58 35 13 0 25 7 29 15 3 8 13 15 23 15 18 1 63 32 63 44 0 14 42 46 60 46 11 0 33 13 48 30 16 16 37 30 47 30 9 0 37 23 62 50 25 28 54 50 64 50 11 0 40 20 65 45 24 25 51 45 59 45 8 0 35 20 59 45 25 25 53 45 63 45 10 0 46 29 81 65 34 36 70 65 80 65 9 0 59 43 111 95 52 52 101 95 110 95 9 0 60 44 112 98 52 53 118 119 147 145 29 26 52 50 52 52 0 13 42 45 58 45 23 0 252 226 252 248 0 10 76 94 169 189 93 94 172 179 175 190 8 24 71 93 85 93 6 0 11 4 11 9 0 5 20 28 45 52 25 24 45 52 45 63 0 10 29 46 65 81 36 34 65 70 65 80 0 10 20 38 45 62 25 23 45 50 45 59 0 9 20 36 45 61 25 24 45 50 45 58 0 8 22 38 50 67 27 29 50 61 50 71 0 10 7 20 15 23 8 4 15 12 15 20 0 8 7 14 15 14 9 0 15 9 15 23 0 15 18 42 45 69 25 25 45 51 45 57 0 6 13 25 28 43 15 18 33 45 40 61 6 15 16 27 22 27 5 0 10 12 10 26 0 16 11 35 30 51 17 14 30 35 30 47 0 12 13 33 30 46 16 14 29 34 30 46 0 11 14 33 30 49 17 16 30 34 30 41 0 6 9 23 20 37 11 14 20 32 20 40 0 8 7 20 15 27 8 7 15 19 15 27 0 8 14 28 30 43 17 15 30 37 30 48 0 11 7 25 15 32 8 7 15 23 15 37 0 13 6 26 14 29 8 3 17 17 21 31 3 14 19 36 35 50 17 14 30 35 31 46 0 12 11 40 24 62 13 22 28 50 34 62 5 11 15 24 20 28 6 3 11 17 11 31 0 14 7 27 15 30 8 4 15 18 15 34 0 16 7 30 15 34 8 3 15 14 15 24 0 11 7 25 15 32 8 7 15 23 15 36 0 13 9 28 20 34 11 6 20 19 20 30 0 10 5 22 10 25 6 3 10 21 10 39 0 18 9 45 20 59 11 14 20 29 20 34 0 18 41 93 50 93 6 0 10 11 10 25 0 14 7 28 15 31 8 4 15 16 15 29 0 12 7 28 15 35 9 7 15 29 15 52 0 25 5 41 15 44 10 4 15 20 15 45 0 26 5 42 15 45 8 4 15 16 15 29 0 12 9 30 20 40 12 11 20 31 20 50 0 18 7 38 15 45 8 7 15 21 15 32 0 10 7 21 15 24 9 4 15 19 15 38 0 17 7 40 15 50 8 11 15 37 15 58 0 25 5 41 15 44 10 4 15 20 15 49 0 29 5 45 15 49 9 3 15 18 15 40 0 19 7 41 15 50 8 8 15 26 15 39 0 13 9 36 20 50 12 14 20 40 20 61 0 20 5 36 10 36 6 0 10 15 10 34 0 19 9 45 21 60 17 22 20 36 15 71 -5 38 -3 46 14 55 15 8 20 21 20 49 0 22 6 44 15 51 10 8 15 31 15 65 0 38 4 55 15 59 11 4 15 20 15 54 0 32 5 54 15 62 10 8 15 31 15 67 0 38 4 55 15 59 11 5 15 22 15 68 0 39 5 69 15 82 9 12 14 43 15 85 0 47 4 70 15 79 10 8 15 31 15 70 0 43 5 64 21 84 18 23 19 34 13 95 -6 62 -4 71 15 90 19 19 21 32 21 120 0 56 4 103 10 106 6 4 10 53 10 116 0 97 2 111 20 126 18 16 20 30 20 181 0 135 3 164 15 168 13 5 15 101 15 779 0 674 -2 774 -15 785 -12 10 -15 44 -15 187 0 160 -2 177 -20 200 -17 22 -20 41 -20 129 0 58 -4 106 -10 109 -6 3 -10 49 -10 102 0 80 -3 99 -20 120 -16 21 -20 41 -20 102 -1 51 -5 82 -15 95 -9 12 -15 43 -15 80 -1 38 -6 68 -15 80 -9 12 -15 42 -15 77 0 38 -5 61 -15 69 -11 9 -15 32 -15 80 0 48 -4 71 -15 80 -9 8 -15 30 -15 60 0 30 -6 52 -15 60 -10 8 -15 31 -15 67 0 38 -4 55 -15 59 -11 4 -15 21 -15 58 0 39 -5 56 -20 69 -13 10 -20 29 -20 50 0 18 -5 38 -12 45 -6 6 -11 32 -9 58 2 36 -3 51 -18 66 -13 11 -21 32 -21 51 0 18 -7 41 -15 51 -8 11 -15 31 -15 45 0 14 -7 35 -15 45 -8 11 -15 32 -15 47 0 14 -7 32 -15 39 -9 7 -15 29 -15 52 0 25 -5 41 -15 44 -10 4 -15 20 -15 45 0 26 -5 42 -15 45 -10 4 -15 20 -15 45 0 26 -5 42 -15 45 -10 4 -15 20 -15 50 0 24 -4 44 -9 44 -14 0 -61 97 -61 125 0 13 -7 30 -15 39 -8 8 -15 30 -15 49 0 22 -6 37 -15 41 -8 3 -15 16 -15 28 0 13 -7 32 -15 42 -8 11 -15 32 -15 47 0 14 -7 32 -15 39 -8 7 -15 21 -15 32 0 10 -7 21 -15 24 -8 4 -15 19 -15 35 0 15 -6 32 -14 36 -7 4 -21 26 -31 48 -31 72 -38 85 -47 85 -4 0 -8 14 -8 32 0 30 -63 172 -81 184 -5 3 -9 16 -9 29 0 12 -7 25 -15 29 -8 3 -15 17 -15 31 0 14 -4 25 -10 25 -11 0 -50 77 -50 100 0 8 -9 23 -20 33 -11 9 -20 26 -20 37 0 11 -4 20 -10 20 -5 0 -10 14 -10 30 0 17 -5 30 -11 30 -5 0 -16 15 -24 34 -8 19 -26 43 -40 54 -14 11 -25 29 -25 40 0 11 -7 25 -15 32 -8 7 -15 21 -15 32 0 10 -7 21 -15 24 -8 4 -15 18 -15 34 0 18 -10 34 -30 50 -17 13 -30 32 -30 44 0 12 -9 29 -20 39 -11 9 -20 23 -20 32 0 8 -13 28 -30 45 -16 17 -30 37 -30 44 0 8 -13 28 -30 46 -16 18 -30 40 -30 50 0 10 -13 30 -30 43 -19 17 -30 35 -30 52 0 14 -7 28 -15 31 -8 3 -17 16 -21 27 -4 12 -20 37 -35 55 -16 18 -29 39 -29 47 0 7 -20 35 -45 62 -25 26 -45 54 -45 61 0 8 -16 29 -35 48 -19 18 -35 40 -35 47 0 7 -13 29 -30 47 -16 18 -30 40 -30 48 0 8 -20 35 -45 60 -25 24 -45 51 -45 60 0 8 -29 42 -65 77 -36 34 -65 70 -65 81 0 10 -27 46 -60 78 -33 33 -60 66 -60 75 0 9 -39 54 -87 101 -47 47 -92 100 -99 117 -8 18 -82 100 -164 181 -83 82 -150 156 -150 165 0 8 -48 62 -107 119 -131 127 -173 171 -173 181 0 4 -9 7 -21 7 -13 0 -77 56 -181 160 -88 88 -168 160 -177 160 -9 0 -57 40 -106 90 -50 49 -97 90 -105 90 -8 0 -44 29 -78 65 -39 40 -72 65 -85 65 -13 0 -43 23 -78 60 -31 33 -65 60 -76 60 -11 0 -39 22 -63 50 -26 30 -52 50 -64 50 -12 0 -34 14 -49 30 -16 17 -37 30 -46 30 -10 0 -31 16 -47 35 -16 19 -37 35 -46 35 -10 0 -35 18 -57 40 -21 22 -47 40 -58 40 -11 0 -32 14 -48 30 -16 17 -37 30 -47 30 -10 0 -23 9 -30 20 -7 11 -22 20 -33 20 -11 0 -35 14 -53 30 -18 17 -39 30 -47 30 -7 0 -25 14 -38 30 -14 17 -35 30 -47 30 -11 0 -34 16 -51 35 -17 19 -40 35 -51 35 -11 0 -26 7 -34 15 -9 8 -24 15 -35 15 -10 0 -19 4 -19 10 0 5 -18 14 -39 20 -22 6 -46 21 -55 35 -9 14 -25 25 -36 25 -11 0 -24 9 -30 20 -6 11 -21 20 -34 20 -12 0 -33 11 -46 25 -13 14 -32 25 -42 25 -10 0 -23 9 -30 20 -8 12 -24 20 -39 20 -15 0 -29 7 -33 15 -3 8 -16 15 -29 15 -14 0 -30 7 -37 15 -7 8 -19 15 -27 15 -8 0 -21 7 -29 15 -9 8 -24 15 -35 15 -11 0 -22 7 -25 15 -4 8 -17 15 -29 15 -13 0 -26 4 -29 9 -7 11 -88 51 -103 51 -5 0 -18 9 -28 20 -10 11 -26 20 -35 20 -10 0 -23 7 -30 15 -7 8 -21 15 -32 15 -10 0 -21 7 -24 15 -4 10 -20 15 -49 15 -26 0 -47 6 -55 15 -7 8 -21 15 -32 15 -10 0 -21 7 -24 15 -4 8 -16 15 -29 15 -12 0 -28 7 -35 15 -7 8 -21 15 -31 15 -10 0 -23 9 -29 21 -9 16 -19 20 -52 18 -29 -3 -42 1 -49 14 -6 9 -18 17 -28 17 -10 0 -24 7 -31 15 -7 8 -29 15 -50 15 -21 0 -43 7 -50 15 -7 8 -28 15 -46 15 -19 0 -34 4 -34 10 0 5 -18 14 -40 20 -21 6 -42 15 -45 20 -3 6 -19 10 -34 10 -16 0 -34 7 -41 15 -18 22 -296 21 -324 0 z "></path></g></g><g id="l7OfQgI5llIsbjIHgowP7ey" fill="rgba(255, 255, 255, 0)" style="transform: none;"><g style="transform: none;"><path id="pTJGq3tUQ" d="M 0 10000 c 0 -10000 0 -10000 10000 -10000 10000 0 10000 0 10000 10000 0 10000 0 10000 -10000 10000 -10000 0 -10000 0 -10000 -10000 z  m 10931 9910 c 142 0 156 -2 172 -20 15 -18 27 -20 122 -17 79 3 108 0 116 -10 9 -10 49 -13 163 -13 141 0 152 -1 164 -20 9 -15 22 -20 45 -19 27 2 42 -8 100 -66 49 -48 67 -72 64 -86 -3 -12 2 -20 14 -24 11 -4 19 -16 19 -29 0 -12 7 -31 15 -42 13 -17 14 -477 15 -3677 0 -3239 -2 -3660 -15 -3673 -11 -11 -15 -38 -15 -95 0 -66 -3 -82 -20 -99 -14 -14 -20 -33 -20 -64 0 -25 -4 -48 -10 -51 -5 -3 -10 -24 -10 -45 0 -24 -6 -42 -15 -47 -8 -5 -16 -17 -18 -28 -1 -11 -11 -32 -21 -48 -10 -15 -16 -36 -13 -47 3 -11 1 -23 -5 -26 -10 -6 -58 -107 -58 -122 0 -6 -7 -12 -15 -16 -8 -3 -15 -14 -15 -25 0 -11 -13 -35 -30 -53 -16 -18 -30 -39 -30 -47 0 -8 -16 -30 -36 -49 -19 -19 -33 -40 -30 -47 2 -7 -2 -16 -10 -19 -8 -3 -14 -11 -15 -18 0 -7 -29 -38 -64 -68 -36 -31 -64 -63 -65 -74 0 -21 -73 -96 -94 -96 -7 0 -21 -9 -32 -20 -10 -11 -37 -37 -58 -58 -22 -20 -50 -47 -62 -59 -12 -13 -29 -23 -39 -23 -10 0 -31 -13 -47 -30 -15 -16 -37 -30 -48 -30 -11 0 -20 -4 -20 -10 0 -5 -12 -13 -27 -16 -16 -4 -41 -22 -57 -41 -20 -24 -33 -32 -47 -28 -12 4 -21 1 -25 -9 -3 -9 -16 -16 -29 -16 -12 0 -30 -9 -40 -20 -13 -14 -29 -20 -52 -18 -22 1 -37 -4 -46 -16 -8 -11 -19 -16 -24 -13 -6 4 -18 -2 -28 -13 -14 -16 -31 -20 -75 -20 -42 0 -59 -4 -64 -15 -4 -11 -20 -15 -56 -15 -36 0 -52 -4 -56 -15 -5 -11 -23 -15 -74 -15 -48 0 -71 -4 -80 -15 -10 -13 -50 -15 -241 -15 -189 0 -230 3 -243 15 -10 11 -37 15 -97 15 -66 0 -84 3 -94 17 -10 13 -24 17 -55 14 -25 -1 -50 3 -65 13 -13 9 -39 16 -57 16 -22 0 -37 7 -45 20 -9 14 -23 19 -49 18 -21 -1 -39 4 -44 13 -6 8 -21 13 -38 11 -18 -2 -34 4 -47 17 -10 12 -28 21 -40 21 -13 0 -25 7 -29 15 -3 8 -17 15 -30 15 -17 0 -33 11 -48 30 -12 17 -29 30 -38 30 -9 0 -25 7 -36 15 -10 8 -24 15 -30 15 -6 0 -35 23 -65 50 -30 28 -61 50 -70 50 -9 0 -50 33 -91 74 -42 41 -84 76 -94 78 -11 2 -20 12 -22 24 -2 11 -35 52 -73 90 -39 38 -77 82 -84 99 -7 16 -31 49 -54 73 -22 24 -41 49 -41 56 0 8 -7 19 -15 26 -8 7 -15 18 -15 26 0 7 -13 29 -30 47 -16 19 -30 39 -30 45 0 18 -51 112 -61 112 -5 0 -9 17 -9 39 0 22 -6 44 -15 51 -9 7 -13 21 -10 30 6 19 -13 70 -27 70 -4 0 -8 15 -8 34 0 18 -7 39 -15 46 -10 8 -15 30 -15 65 0 35 -5 57 -15 65 -13 11 -15 231 -15 1866 0 1807 0 1854 -19 1854 -10 0 -24 -7 -31 -15 -7 -8 -29 -15 -50 -15 -21 0 -43 -7 -50 -15 -7 -8 -21 -15 -32 -15 -10 0 -21 -7 -24 -15 -4 -10 -20 -15 -45 -15 -28 0 -42 -6 -51 -20 -8 -12 -24 -20 -39 -20 -15 0 -30 -7 -33 -16 -4 -10 -13 -13 -26 -9 -13 4 -23 0 -32 -14 -9 -15 -23 -21 -49 -21 -20 0 -42 -7 -49 -15 -7 -8 -21 -15 -32 -15 -10 0 -21 -7 -24 -15 -4 -8 -18 -15 -34 -15 -16 0 -30 -7 -34 -15 -3 -8 -15 -15 -26 -15 -11 0 -23 -7 -26 -15 -4 -8 -15 -15 -26 -15 -11 0 -31 -9 -45 -19 -13 -11 -31 -17 -39 -14 -7 3 -17 -2 -20 -11 -3 -9 -17 -16 -30 -16 -13 0 -28 -9 -35 -21 -7 -13 -17 -19 -29 -16 -11 3 -26 -3 -36 -14 -9 -10 -26 -19 -36 -19 -10 0 -21 -7 -24 -15 -4 -8 -12 -15 -20 -15 -8 0 -14 -7 -14 -15 0 -9 -9 -15 -25 -15 -14 0 -28 -7 -31 -15 -4 -8 -18 -15 -33 -15 -16 0 -31 -8 -39 -20 -7 -12 -17 -18 -23 -14 -6 3 -28 -10 -49 -31 -21 -21 -43 -35 -48 -31 -6 3 -24 -10 -41 -29 -18 -21 -40 -35 -54 -35 -15 0 -36 -15 -61 -45 -22 -25 -46 -45 -55 -45 -9 0 -38 -21 -64 -45 -26 -25 -55 -45 -64 -45 -9 0 -38 -22 -65 -50 -27 -27 -57 -50 -68 -50 -18 0 -60 -32 -60 -45 0 -14 -37 -45 -54 -45 -13 0 -67 -47 -143 -125 -67 -69 -130 -125 -140 -125 -17 0 -222 -192 -223 -208 -1 -4 -23 -25 -50 -47 -29 -23 -50 -48 -50 -60 -1 -23 -33 -65 -49 -65 -6 0 -11 -4 -11 -10 0 -13 -37 -50 -50 -50 -6 0 -10 -3 -10 -8 0 -4 -29 -37 -65 -74 -40 -42 -63 -73 -59 -82 3 -9 -2 -17 -15 -21 -12 -3 -21 -13 -21 -21 0 -8 -4 -14 -10 -14 -17 0 -50 -39 -50 -60 0 -11 -20 -40 -45 -64 -25 -24 -47 -53 -50 -64 -2 -12 -24 -43 -49 -68 -25 -25 -46 -54 -46 -64 0 -9 -20 -34 -45 -56 -27 -23 -45 -46 -45 -59 0 -12 -13 -34 -30 -50 -16 -16 -30 -39 -30 -52 0 -13 -5 -23 -11 -23 -5 0 -16 -15 -24 -34 -8 -19 -26 -43 -40 -54 -14 -11 -25 -29 -25 -40 0 -11 -7 -25 -15 -32 -8 -7 -15 -22 -15 -34 0 -12 -13 -32 -30 -46 -16 -14 -30 -34 -30 -46 0 -12 -7 -24 -15 -28 -8 -3 -15 -15 -15 -27 0 -12 -7 -27 -15 -33 -8 -6 -17 -21 -20 -34 -2 -12 -11 -29 -19 -38 -9 -8 -16 -19 -16 -24 0 -18 -72 -160 -81 -160 -5 0 -9 -11 -9 -25 0 -14 -7 -28 -15 -31 -8 -4 -15 -17 -15 -30 0 -14 -7 -27 -15 -30 -10 -4 -15 -20 -15 -45 0 -26 -7 -47 -19 -61 -11 -11 -17 -26 -14 -34 3 -8 -2 -17 -11 -20 -9 -3 -16 -15 -16 -26 0 -11 -9 -31 -20 -45 -11 -14 -20 -36 -20 -50 0 -13 -7 -35 -16 -48 -8 -13 -14 -32 -12 -42 1 -10 -5 -29 -15 -43 -9 -13 -17 -30 -17 -38 0 -7 -7 -24 -16 -37 -9 -14 -14 -34 -11 -44 3 -12 -3 -27 -14 -37 -11 -10 -19 -30 -19 -47 0 -17 -8 -39 -17 -49 -12 -13 -16 -33 -14 -68 2 -39 -1 -50 -14 -50 -11 0 -15 -11 -15 -40 0 -27 -7 -47 -21 -61 -17 -17 -20 -30 -16 -65 4 -37 1 -46 -15 -55 -16 -9 -19 -19 -17 -59 2 -35 -2 -55 -14 -68 -12 -13 -17 -37 -17 -83 -1 -40 -6 -71 -15 -83 -9 -12 -15 -42 -15 -78 0 -43 -4 -60 -15 -64 -12 -5 -15 -25 -15 -91 0 -67 -4 -88 -16 -97 -13 -10 -16 -33 -16 -128 0 -91 -3 -118 -14 -122 -22 -8 -21 -1241 1 -1250 12 -4 15 -26 15 -106 0 -80 3 -102 15 -106 12 -5 15 -26 15 -98 0 -69 4 -97 17 -115 11 -17 16 -41 14 -80 -1 -38 3 -63 13 -76 10 -13 15 -42 16 -81 0 -37 6 -68 15 -80 8 -10 15 -37 15 -60 0 -22 7 -49 15 -60 8 -10 15 -40 15 -65 0 -33 6 -51 20 -64 13 -11 20 -31 20 -52 0 -19 7 -41 16 -50 11 -11 14 -26 9 -54 -5 -30 -2 -42 14 -58 13 -13 21 -34 21 -55 0 -19 4 -37 9 -40 16 -11 51 -92 51 -120 0 -15 7 -34 15 -42 8 -9 15 -26 15 -39 0 -28 38 -106 57 -118 7 -4 13 -25 13 -46 0 -22 6 -44 15 -51 8 -7 15 -20 15 -30 0 -10 7 -23 15 -30 8 -7 15 -27 15 -45 0 -18 7 -38 15 -45 8 -7 15 -20 15 -30 0 -10 7 -23 15 -30 8 -7 15 -21 15 -31 0 -9 7 -24 15 -33 8 -8 15 -19 15 -25 0 -17 43 -95 59 -107 8 -6 11 -16 7 -22 -4 -6 3 -21 14 -32 12 -12 19 -24 16 -27 -5 -5 17 -54 45 -103 5 -8 13 -24 18 -35 5 -11 21 -31 35 -44 14 -14 26 -32 26 -42 0 -10 7 -24 15 -33 8 -8 15 -21 15 -29 0 -8 13 -30 30 -48 16 -19 30 -40 30 -47 0 -7 9 -20 20 -29 11 -10 20 -27 20 -39 0 -12 13 -34 30 -47 17 -15 30 -36 30 -49 1 -15 18 -36 50 -63 28 -22 48 -46 45 -52 -2 -7 6 -24 18 -37 53 -58 67 -77 67 -94 0 -9 21 -35 46 -57 25 -21 53 -56 61 -76 8 -21 32 -52 54 -70 21 -17 39 -40 39 -50 0 -11 61 -80 140 -159 77 -78 140 -148 140 -157 0 -21 264 -283 286 -283 9 0 71 -54 136 -121 65 -66 127 -122 137 -124 11 -2 41 -24 67 -49 26 -25 54 -46 61 -46 8 0 35 -20 61 -45 25 -25 53 -45 62 -45 8 0 23 -8 31 -18 30 -33 84 -77 96 -77 7 0 33 -21 57 -48 30 -31 53 -47 69 -47 14 0 27 -7 31 -15 3 -8 14 -15 24 -15 11 0 34 -16 53 -35 19 -19 44 -35 56 -35 13 0 32 -12 45 -30 12 -16 30 -30 40 -30 27 0 105 -86 135 -150 14 -30 31 -58 37 -62 7 -5 11 -524 11 -1815 0 -1710 -1 -1809 -17 -1821 -11 -8 -18 -27 -18 -45 0 -18 -7 -41 -15 -51 -8 -11 -15 -26 -15 -34 0 -21 -107 -122 -129 -122 -11 0 -21 -5 -23 -12 -3 -7 -19 -11 -41 -10 -28 2 -40 -2 -49 -18 -11 -18 -23 -20 -103 -20 -79 0 -92 2 -103 20 -9 14 -23 20 -51 20 -25 0 -41 5 -45 15 -3 9 -12 12 -21 9 -10 -4 -22 1 -31 15 -8 11 -26 21 -38 21 -13 0 -27 7 -30 16 -4 10 -14 14 -26 11 -11 -3 -26 3 -36 14 -11 12 -31 19 -54 19 -24 0 -40 5 -44 15 -3 8 -15 15 -26 15 -11 0 -23 7 -26 15 -4 10 -20 15 -50 15 -32 0 -47 5 -56 19 -6 10 -17 17 -23 14 -7 -2 -19 3 -28 11 -9 9 -24 16 -34 16 -10 0 -24 9 -31 20 -7 11 -23 20 -36 20 -13 0 -27 7 -30 15 -4 12 -14 14 -39 10 -25 -5 -37 -2 -51 14 -11 12 -27 21 -36 21 -10 0 -23 7 -30 15 -7 8 -21 15 -32 15 -10 0 -21 7 -24 15 -4 8 -18 15 -34 15 -16 0 -30 7 -34 15 -3 8 -14 15 -24 15 -11 0 -25 7 -32 15 -7 8 -22 15 -34 15 -12 0 -27 9 -34 20 -7 11 -21 20 -31 20 -10 0 -24 7 -31 15 -8 9 -21 13 -32 9 -14 -4 -24 1 -34 15 -9 12 -26 21 -40 21 -13 0 -24 4 -24 10 0 16 -43 50 -62 50 -10 0 -21 7 -24 15 -4 8 -16 15 -29 15 -12 0 -28 7 -35 15 -7 8 -21 15 -31 15 -10 0 -32 14 -47 30 -16 17 -38 30 -48 30 -11 0 -25 9 -32 20 -7 11 -20 20 -30 20 -9 1 -33 14 -52 30 -19 17 -42 30 -51 30 -9 0 -19 6 -22 14 -3 7 -22 17 -42 20 -25 5 -39 14 -45 32 -7 17 -17 24 -36 24 -16 0 -37 12 -56 32 -16 18 -37 33 -45 34 -9 2 -30 16 -47 33 -18 17 -39 31 -48 31 -8 0 -21 7 -28 15 -7 9 -20 13 -28 10 -10 -4 -33 12 -64 45 -26 27 -56 50 -65 50 -10 0 -31 14 -46 30 -16 17 -36 30 -45 30 -10 0 -37 23 -61 50 -26 30 -52 50 -65 50 -24 1 -79 46 -89 73 -4 9 -16 17 -27 17 -11 0 -50 28 -88 65 -37 36 -75 65 -84 65 -9 0 -36 20 -60 45 -24 25 -49 45 -57 45 -8 0 -63 49 -123 109 -70 70 -119 111 -137 114 -16 4 -40 22 -57 44 -15 21 -38 45 -49 55 -21 17 -145 140 -208 206 -21 22 -44 39 -51 38 -8 0 -46 30 -85 67 -49 48 -71 76 -71 93 0 15 -6 24 -15 24 -8 0 -15 4 -15 9 0 4 -30 38 -68 74 -240 235 -272 269 -272 290 0 7 -29 42 -65 76 -36 35 -65 65 -65 67 0 2 -20 24 -45 47 -25 24 -45 50 -45 58 0 8 -19 32 -41 54 -22 22 -47 54 -54 70 -7 17 -38 55 -69 85 -31 30 -56 64 -56 75 0 11 -19 36 -41 55 -23 19 -48 51 -56 71 -8 21 -32 53 -54 72 -21 20 -39 42 -39 50 0 8 -13 29 -30 47 -16 18 -30 35 -30 40 0 4 -13 26 -30 48 -16 23 -30 46 -30 52 0 5 -13 24 -29 42 -15 18 -32 43 -35 56 -4 12 -18 30 -32 38 -13 9 -24 25 -24 35 0 11 -9 29 -20 42 -12 12 -27 29 -35 38 -8 9 -15 25 -15 35 0 11 -13 30 -30 42 -16 13 -30 29 -30 36 0 20 -49 116 -59 116 -5 0 -18 20 -30 45 -12 25 -26 45 -31 45 -6 0 -10 9 -10 19 0 11 -14 32 -30 48 -19 17 -30 38 -30 54 0 15 -7 29 -15 33 -8 3 -15 17 -15 31 0 14 -7 28 -15 31 -8 4 -15 14 -15 24 0 10 -14 31 -30 47 -17 15 -30 35 -30 44 0 9 -9 24 -20 34 -11 10 -20 29 -20 42 0 13 -7 26 -16 30 -8 3 -13 11 -10 19 3 7 -4 24 -15 37 -10 14 -19 34 -19 45 0 11 -7 22 -15 26 -8 3 -15 14 -15 24 0 11 -7 25 -15 32 -8 7 -15 23 -15 36 0 13 -4 24 -9 24 -5 0 -22 26 -36 57 -15 32 -34 66 -42 75 -9 10 -13 27 -10 38 6 23 -37 120 -54 120 -5 0 -9 11 -9 24 0 13 -7 29 -15 36 -8 7 -15 20 -15 30 0 10 -7 23 -15 30 -9 7 -15 29 -15 51 0 21 -6 42 -12 46 -18 11 -48 71 -48 95 0 11 -6 32 -13 46 -8 15 -21 42 -30 60 -9 19 -17 44 -17 56 0 13 -9 35 -20 49 -11 14 -20 30 -20 35 0 5 -7 15 -16 23 -10 8 -13 21 -9 36 4 16 -1 33 -15 50 -12 16 -20 41 -20 65 0 25 -5 41 -15 44 -9 4 -15 19 -15 38 0 18 -7 41 -15 52 -8 10 -15 33 -15 50 0 17 -7 37 -15 44 -8 7 -15 25 -15 39 0 15 -7 36 -15 47 -8 10 -15 33 -15 51 0 19 -8 40 -21 51 -15 15 -20 30 -18 66 2 26 -3 52 -9 58 -7 7 -12 24 -12 39 0 14 -9 38 -20 52 -14 18 -20 40 -20 76 0 37 -4 53 -15 57 -9 4 -15 19 -15 38 0 17 -7 40 -15 50 -9 12 -15 42 -15 72 0 37 -4 54 -15 58 -11 4 -15 22 -15 69 0 40 -5 70 -15 83 -8 10 -15 37 -15 59 0 22 -7 51 -17 64 -11 17 -16 41 -14 80 1 37 -3 63 -13 76 -10 13 -15 44 -16 93 0 59 -4 76 -21 93 -17 17 -20 31 -17 84 1 41 -2 69 -10 77 -8 8 -12 48 -12 120 0 95 -2 110 -20 128 -18 18 -20 33 -20 134 0 92 -3 115 -15 120 -12 4 -15 32 -15 164 0 130 -3 162 -15 172 -13 11 -15 106 -15 745 0 639 2 734 15 745 12 10 15 44 15 190 0 149 2 179 15 184 12 4 15 27 15 120 0 105 2 116 21 129 19 14 20 24 18 112 -2 74 0 98 11 105 11 7 14 28 11 87 -2 70 0 81 19 98 18 16 21 29 19 82 -2 51 1 66 15 76 15 11 17 25 14 73 -2 48 1 65 15 79 12 13 17 35 17 71 0 37 4 54 15 58 11 4 15 22 15 70 0 44 5 69 15 80 10 9 15 34 15 69 0 40 4 56 15 61 9 3 15 19 15 41 0 20 7 42 18 53 12 12 16 30 14 66 -3 40 0 51 18 63 17 12 20 24 19 65 -2 39 1 52 15 60 12 7 17 20 14 45 -2 25 3 39 16 48 13 10 17 23 14 45 -3 21 1 35 14 47 11 10 18 30 18 53 0 24 5 40 15 44 10 3 15 19 15 45 0 25 5 41 15 45 9 3 15 18 15 39 0 18 7 42 15 53 8 10 15 32 15 47 0 15 9 38 20 49 15 17 19 30 14 55 -5 25 -2 34 10 39 9 3 16 14 16 25 0 10 10 27 21 38 16 15 20 28 17 51 -4 23 0 34 15 41 12 7 17 18 14 29 -3 11 3 26 14 36 11 10 19 30 19 50 0 18 4 35 9 38 17 11 51 92 51 123 0 18 6 33 15 37 8 3 15 16 15 30 0 13 7 26 15 30 8 3 15 17 15 31 0 14 9 30 20 37 11 7 20 22 20 34 0 12 6 27 14 33 8 6 12 26 10 46 -2 27 2 38 18 46 11 6 17 17 14 24 -2 7 4 21 15 31 10 9 19 22 18 28 -3 25 2 36 16 36 10 0 15 10 15 29 0 16 6 31 15 35 8 3 15 17 15 31 0 14 7 28 15 31 8 4 15 17 15 30 0 13 9 28 19 34 13 6 17 17 14 30 -3 12 1 22 11 26 9 3 16 17 16 33 0 16 8 31 21 39 11 7 18 19 16 27 -3 7 3 21 13 30 10 9 17 22 14 29 -2 6 11 27 30 46 20 19 36 45 36 56 0 12 7 24 15 28 8 3 15 16 15 28 0 14 13 34 30 48 17 14 30 34 30 47 0 12 9 27 21 33 12 7 18 18 15 26 -3 7 3 22 14 32 10 9 18 26 16 37 -2 12 10 31 31 49 18 16 33 37 33 47 0 9 13 28 28 41 16 13 32 36 36 51 3 15 11 27 16 27 6 0 10 6 10 13 0 7 9 18 20 25 12 7 18 17 15 22 -4 6 9 26 27 45 18 20 34 45 34 57 1 11 9 25 18 30 9 5 16 17 16 27 0 10 20 38 45 62 25 24 45 53 45 64 0 11 14 31 30 45 17 14 30 34 30 45 0 11 21 39 50 65 28 25 50 54 50 65 0 11 20 39 45 63 25 24 45 48 45 53 0 16 33 69 42 69 15 0 53 45 50 60 -1 8 27 44 63 80 36 35 65 72 65 82 0 10 43 60 95 111 52 51 95 100 95 108 0 8 76 92 170 185 93 93 170 177 170 186 0 22 226 248 248 248 9 0 93 77 186 170 93 94 175 170 182 170 7 0 30 16 51 35 21 19 41 35 46 35 4 0 7 4 7 10 0 15 100 110 116 110 9 0 43 26 77 59 34 32 71 61 83 65 12 4 42 27 67 51 25 25 52 45 61 45 9 0 35 20 57 44 23 25 52 47 65 50 13 4 42 24 65 46 25 24 52 40 66 40 13 0 27 8 30 17 12 30 37 53 58 53 11 0 39 20 63 45 24 25 49 45 57 45 8 0 29 13 47 28 18 16 48 34 66 41 17 8 32 17 32 22 0 5 7 9 15 9 8 0 28 14 45 30 17 17 39 30 48 30 10 0 31 14 47 30 16 17 38 30 50 30 12 0 31 13 43 30 13 17 29 30 36 30 24 0 161 74 188 102 15 16 36 28 46 28 11 0 25 7 32 15 7 8 20 15 30 15 10 0 23 7 30 15 7 8 19 15 26 15 8 0 31 16 53 35 21 19 48 35 60 35 11 0 21 5 21 10 0 6 8 10 18 10 10 0 29 8 42 17 14 10 32 19 40 20 8 1 20 9 27 18 6 10 16 14 22 11 6 -4 19 2 31 14 11 11 27 20 36 20 9 0 27 9 41 20 14 11 32 20 39 20 8 0 14 5 14 10 0 6 6 10 14 10 18 0 113 47 121 60 3 5 13 6 21 3 18 -7 113 35 130 56 6 8 16 11 22 7 6 -4 20 2 32 14 11 11 29 20 40 20 11 0 23 7 26 15 4 8 17 15 30 15 15 0 24 6 24 15 0 16 9 18 47 15 13 -1 35 5 50 14 16 8 45 18 66 21 20 3 37 10 37 15 0 6 11 10 24 10 13 0 29 7 36 15 7 8 21 15 32 15 27 0 128 48 128 60 0 7 14 10 33 8 20 -2 38 3 49 14 11 11 31 17 54 16 25 -1 39 4 46 15 6 12 22 17 49 17 26 0 42 5 45 15 4 10 20 15 44 15 21 0 43 7 50 15 7 8 25 15 39 15 15 0 36 7 47 15 10 8 31 15 45 15 14 0 34 7 45 15 10 8 33 15 49 15 17 0 42 8 55 17 14 10 44 18 68 19 25 1 51 9 62 19 10 9 24 14 30 10 13 -8 70 13 70 26 0 5 24 9 54 9 35 0 58 5 66 15 8 9 29 15 56 15 24 0 49 6 58 15 10 10 36 15 84 15 50 0 73 4 82 15 8 9 29 15 56 15 24 0 49 6 58 15 10 10 35 15 74 15 43 0 66 5 82 18 18 14 35 18 70 14 30 -3 59 1 81 11 19 9 69 17 112 19 62 3 81 7 88 21 8 14 26 17 107 17 62 0 102 4 110 12 7 7 55 12 124 14 88 3 115 7 124 19 9 12 40 15 180 15 134 0 174 3 191 15 18 13 124 15 760 17 690 3 739 2 759 -14 17 -16 42 -18 175 -18 z  m 2449 -545 c 7 -8 24 -15 37 -15 14 0 38 -9 54 -21 16 -11 33 -18 38 -14 6 3 19 -4 30 -16 14 -15 27 -20 44 -15 17 4 30 0 43 -15 12 -14 28 -19 50 -17 21 1 40 -4 53 -16 11 -10 24 -15 30 -12 5 4 15 -3 21 -14 9 -17 19 -21 52 -19 29 3 42 -1 49 -14 6 -9 18 -17 28 -17 10 0 24 -7 31 -15 7 -8 22 -15 34 -15 12 0 27 -9 34 -21 7 -11 19 -18 27 -15 7 2 19 -2 25 -10 7 -8 30 -14 54 -14 31 0 44 -5 54 -21 7 -11 19 -18 27 -16 7 3 21 -3 31 -14 10 -11 23 -18 30 -15 7 3 20 -4 30 -15 9 -10 22 -19 27 -19 15 0 96 -40 103 -51 3 -5 16 -9 29 -9 12 0 25 -7 29 -15 3 -8 14 -15 25 -15 11 0 26 -7 35 -15 8 -8 21 -15 29 -15 8 0 22 -9 33 -21 10 -11 26 -18 35 -16 9 3 24 -4 33 -15 10 -12 24 -17 33 -14 10 4 21 -1 30 -14 8 -11 22 -20 32 -20 9 0 30 -14 47 -31 18 -18 36 -28 47 -25 10 2 21 -3 27 -15 6 -10 18 -19 27 -19 9 0 32 -16 51 -36 19 -19 40 -33 48 -30 7 3 20 -2 29 -10 8 -8 24 -17 36 -19 12 -2 27 -12 34 -21 7 -10 19 -15 28 -11 10 4 26 -6 46 -29 17 -18 40 -34 51 -34 12 0 33 -13 47 -30 13 -16 31 -30 38 -30 8 0 29 -13 47 -30 18 -16 42 -30 53 -30 11 0 26 -9 33 -20 7 -11 20 -20 30 -20 10 0 31 -13 47 -30 16 -16 37 -30 48 -30 11 0 38 -19 60 -42 22 -23 48 -42 57 -43 10 -1 33 -18 53 -39 19 -21 39 -36 45 -32 6 3 25 -10 44 -29 20 -22 40 -34 50 -32 10 3 32 -13 59 -44 24 -27 51 -49 62 -49 11 0 47 -29 82 -66 43 -46 68 -65 79 -61 10 4 36 -15 78 -58 34 -36 70 -65 78 -65 8 0 58 -43 110 -95 52 -53 100 -93 107 -91 6 3 84 -67 172 -155 103 -103 167 -159 180 -159 12 0 21 -3 21 -7 0 -10 42 -54 173 -181 59 -57 107 -111 107 -119 0 -9 67 -83 150 -165 82 -81 156 -163 164 -181 7 -17 52 -70 99 -117 48 -47 87 -92 87 -101 0 -9 27 -42 60 -75 33 -32 60 -68 60 -78 0 -11 29 -47 65 -81 36 -35 65 -69 65 -77 0 -9 20 -36 45 -60 25 -25 45 -52 45 -60 0 -8 14 -30 30 -48 17 -18 30 -40 30 -47 0 -7 16 -29 35 -47 19 -19 35 -40 35 -48 0 -7 20 -35 45 -61 25 -27 45 -55 45 -62 0 -8 13 -29 29 -47 15 -18 31 -43 35 -55 4 -11 13 -24 21 -27 8 -3 15 -17 15 -31 0 -17 11 -35 30 -52 17 -13 30 -33 30 -43 0 -10 14 -32 30 -50 17 -18 30 -38 30 -46 0 -7 14 -27 30 -44 17 -17 30 -37 30 -45 0 -8 9 -23 21 -34 12 -11 18 -24 14 -30 -3 -6 10 -26 29 -45 23 -21 36 -43 36 -59 0 -13 7 -27 15 -31 8 -3 15 -14 15 -24 0 -11 7 -25 15 -32 8 -7 15 -21 15 -32 0 -11 14 -31 30 -45 17 -13 30 -31 30 -39 0 -8 9 -23 21 -35 11 -11 18 -27 15 -34 -3 -8 1 -21 9 -29 8 -8 15 -22 15 -30 0 -9 9 -24 20 -33 11 -10 20 -25 20 -33 0 -23 39 -100 50 -100 6 0 10 -11 10 -25 0 -14 7 -28 15 -31 8 -4 15 -17 15 -29 0 -13 4 -26 9 -29 18 -12 81 -154 81 -184 0 -18 4 -32 8 -32 9 0 16 -13 47 -85 10 -22 24 -44 31 -48 8 -4 14 -21 14 -36 0 -16 7 -31 15 -35 8 -3 15 -14 15 -24 0 -11 7 -25 15 -32 8 -7 15 -25 15 -39 0 -15 7 -36 15 -47 8 -10 15 -29 15 -42 0 -12 7 -25 15 -28 9 -4 15 -19 15 -41 0 -19 7 -41 15 -49 8 -9 15 -26 15 -39 0 -28 47 -125 61 -125 5 0 9 -20 9 -44 0 -31 5 -46 16 -50 12 -5 15 -14 10 -36 -4 -23 -1 -35 14 -47 13 -12 20 -30 20 -54 0 -24 5 -39 15 -43 10 -3 15 -19 15 -44 0 -23 6 -45 15 -52 8 -7 15 -25 15 -39 0 -15 7 -36 15 -47 8 -10 15 -31 15 -45 0 -14 7 -34 15 -45 8 -10 15 -34 15 -52 0 -19 8 -39 19 -48 14 -13 18 -25 14 -55 -4 -26 0 -47 11 -63 9 -14 16 -39 16 -56 0 -18 8 -37 20 -47 15 -13 20 -30 20 -69 0 -37 4 -54 15 -58 11 -4 15 -21 15 -59 0 -36 5 -59 15 -67 9 -8 15 -30 15 -60 0 -30 6 -52 15 -60 11 -9 15 -32 15 -80 0 -48 4 -71 15 -80 10 -8 15 -31 15 -69 0 -35 6 -65 15 -77 9 -12 14 -42 15 -80 0 -37 6 -68 15 -80 10 -13 14 -44 15 -95 0 -61 4 -81 20 -102 17 -21 20 -40 20 -120 0 -53 4 -99 10 -102 6 -3 10 -51 10 -109 0 -88 3 -107 20 -129 18 -23 20 -40 20 -200 0 -143 3 -177 15 -187 13 -11 15 -107 15 -755 0 -651 -2 -744 -15 -749 -12 -4 -15 -33 -15 -168 0 -151 -2 -165 -20 -181 -18 -15 -20 -29 -20 -126 0 -63 -4 -112 -10 -116 -6 -3 -10 -50 -10 -106 0 -87 -3 -102 -21 -120 -17 -17 -20 -31 -18 -93 1 -55 -2 -79 -15 -97 -10 -15 -16 -44 -16 -80 0 -38 -5 -61 -15 -69 -11 -9 -15 -32 -15 -79 -1 -42 -6 -73 -15 -85 -10 -13 -15 -43 -15 -82 0 -46 -4 -63 -15 -68 -11 -4 -15 -21 -15 -59 0 -36 -5 -59 -15 -67 -10 -8 -15 -30 -15 -62 0 -34 -4 -50 -15 -54 -11 -4 -15 -21 -15 -55 0 -35 -6 -58 -21 -79 -14 -19 -20 -37 -17 -55 4 -19 0 -29 -14 -36 -16 -8 -19 -20 -17 -58 2 -32 -3 -55 -14 -71 -9 -14 -17 -39 -17 -56 0 -20 -6 -34 -16 -38 -11 -4 -15 -16 -13 -39 2 -19 -4 -43 -14 -57 -9 -13 -17 -35 -17 -48 0 -13 -7 -30 -15 -38 -8 -9 -15 -31 -15 -50 0 -22 -6 -37 -15 -40 -10 -4 -15 -20 -15 -45 0 -26 -7 -46 -20 -59 -14 -14 -18 -28 -14 -45 4 -16 0 -34 -10 -50 -9 -13 -16 -36 -16 -51 0 -15 -7 -32 -16 -38 -8 -6 -16 -18 -17 -26 -2 -8 -11 -27 -21 -43 -10 -15 -16 -36 -13 -46 3 -12 -3 -27 -14 -37 -10 -9 -19 -27 -19 -39 0 -13 -7 -25 -15 -29 -10 -3 -15 -19 -15 -45 0 -25 -5 -41 -15 -45 -10 -3 -15 -19 -15 -44 0 -23 -6 -45 -15 -52 -8 -7 -15 -23 -15 -35 0 -13 -7 -25 -15 -29 -8 -3 -15 -17 -15 -31 0 -14 -4 -25 -9 -25 -6 0 -21 -22 -35 -50 -14 -28 -23 -50 -20 -50 3 0 -4 -12 -15 -26 -12 -15 -21 -41 -21 -58 0 -17 -7 -40 -15 -50 -8 -10 -12 -23 -9 -27 2 -4 -5 -13 -16 -19 -11 -6 -20 -21 -20 -34 0 -13 -7 -29 -15 -36 -8 -7 -15 -21 -15 -32 0 -10 -7 -21 -15 -24 -8 -4 -15 -18 -15 -34 0 -16 -7 -30 -15 -34 -8 -3 -15 -16 -15 -29 0 -13 -9 -32 -20 -42 -11 -10 -17 -21 -15 -26 3 -4 1 -10 -5 -14 -14 -9 -61 -106 -55 -115 3 -4 -8 -19 -25 -33 -16 -14 -32 -36 -35 -50 -4 -14 -13 -28 -21 -31 -8 -3 -14 -16 -14 -29 0 -13 -9 -32 -19 -41 -11 -10 -17 -24 -14 -32 3 -8 -9 -27 -27 -44 -17 -16 -33 -36 -34 -44 -1 -8 -8 -21 -15 -29 -7 -9 -13 -22 -15 -29 -1 -7 -9 -24 -19 -38 -9 -13 -17 -29 -17 -35 0 -6 -13 -24 -30 -40 -16 -16 -30 -38 -30 -49 -1 -12 -14 -32 -30 -46 -17 -13 -30 -34 -30 -46 0 -12 -13 -33 -30 -47 -19 -16 -30 -35 -30 -51 0 -14 -5 -26 -10 -26 -6 0 -16 -12 -22 -28 -7 -15 -25 -42 -40 -60 -15 -18 -28 -37 -28 -43 0 -6 -20 -32 -45 -57 -27 -27 -45 -54 -45 -69 0 -14 -6 -23 -15 -23 -8 0 -15 -5 -15 -11 0 -7 -7 -17 -16 -23 -8 -6 -16 -19 -18 -28 -1 -9 -23 -39 -49 -68 -26 -28 -47 -58 -47 -65 0 -8 -20 -34 -45 -58 -25 -25 -45 -52 -45 -61 0 -9 -21 -36 -47 -61 -25 -25 -47 -53 -48 -64 -1 -11 -29 -46 -63 -79 -34 -33 -62 -68 -62 -79 0 -10 -20 -38 -45 -62 -25 -24 -45 -47 -45 -52 0 -5 -5 -9 -11 -9 -14 0 -77 -69 -85 -93 -3 -11 -82 -96 -175 -190 -93 -95 -169 -179 -169 -189 0 -22 -229 -248 -252 -248 -16 0 -58 -32 -58 -45 0 -2 -23 -26 -52 -52 -29 -26 -95 -92 -147 -146 -52 -53 -103 -97 -112 -97 -9 0 -58 -43 -110 -95 -52 -52 -102 -95 -111 -95 -9 0 -46 -30 -82 -66 -37 -39 -69 -63 -75 -59 -7 4 -33 -15 -61 -44 -27 -28 -56 -51 -64 -51 -9 0 -36 -20 -60 -45 -25 -25 -54 -45 -65 -45 -10 0 -39 -22 -64 -50 -25 -27 -53 -50 -62 -50 -10 0 -31 -14 -47 -30 -15 -17 -37 -30 -48 -30 -18 0 -60 -32 -60 -46 0 -12 -45 -43 -63 -44 -10 0 -20 -7 -23 -15 -4 -8 -16 -15 -29 -15 -12 0 -38 -16 -59 -36 -20 -19 -40 -32 -46 -29 -5 3 -19 -8 -31 -25 -14 -18 -35 -32 -55 -36 -19 -3 -40 -18 -53 -35 -13 -17 -31 -29 -44 -29 -13 0 -33 -13 -47 -30 -14 -16 -35 -29 -48 -30 -12 0 -25 -7 -28 -15 -4 -8 -17 -15 -30 -15 -13 0 -29 -9 -36 -20 -7 -11 -22 -20 -33 -20 -12 0 -32 -13 -45 -30 -16 -18 -35 -29 -51 -30 -15 0 -29 -7 -33 -15 -3 -8 -13 -15 -23 -15 -10 0 -31 -14 -47 -30 -16 -17 -40 -30 -53 -30 -13 0 -26 -7 -29 -15 -4 -8 -14 -15 -24 -15 -9 0 -25 -9 -35 -20 -10 -11 -28 -20 -40 -20 -13 0 -25 -6 -28 -14 -4 -9 -14 -12 -26 -9 -13 3 -24 -2 -33 -16 -7 -12 -23 -21 -36 -21 -12 0 -25 -7 -28 -15 -4 -8 -17 -15 -30 -15 -14 0 -27 -7 -30 -15 -4 -8 -18 -15 -34 -15 -16 0 -30 -7 -34 -15 -3 -8 -14 -15 -24 -15 -11 0 -25 -7 -32 -15 -7 -8 -20 -15 -30 -15 -9 0 -25 -9 -35 -20 -13 -15 -26 -18 -51 -14 -25 4 -36 1 -40 -10 -3 -9 -16 -16 -29 -16 -12 0 -30 -9 -40 -20 -10 -11 -26 -20 -35 -20 -10 0 -23 -7 -30 -15 -7 -8 -21 -15 -32 -15 -10 0 -21 -7 -24 -15 -4 -10 -20 -15 -50 -15 -24 0 -44 -4 -44 -10 0 -5 -11 -12 -25 -16 -13 -3 -29 -12 -36 -20 -6 -8 -26 -14 -44 -14 -18 0 -38 -7 -45 -15 -7 -8 -23 -15 -37 -15 -13 0 -26 -7 -29 -15 -4 -10 -20 -15 -44 -15 -24 0 -43 -7 -55 -20 -10 -12 -24 -19 -31 -16 -7 3 -18 -2 -24 -10 -7 -8 -27 -14 -45 -14 -19 0 -39 -8 -50 -20 -11 -13 -31 -20 -52 -20 -19 0 -41 -7 -49 -15 -9 -8 -31 -15 -50 -15 -22 0 -37 -6 -40 -15 -4 -10 -20 -15 -44 -15 -21 0 -43 -7 -50 -15 -7 -9 -29 -15 -52 -15 -25 0 -41 -5 -44 -15 -4 -9 -19 -15 -37 -15 -17 0 -38 -7 -48 -16 -12 -11 -38 -17 -75 -18 -36 0 -59 -6 -62 -13 -2 -7 -18 -13 -36 -13 -21 0 -40 -8 -52 -21 -14 -16 -28 -20 -66 -18 -33 2 -53 -2 -66 -14 -10 -9 -33 -17 -51 -17 -19 0 -34 -6 -37 -15 -5 -11 -22 -15 -64 -15 -42 0 -59 -4 -64 -15 -4 -11 -22 -15 -76 -15 -54 0 -72 -4 -76 -15 -4 -11 -21 -15 -59 -15 -34 0 -57 -5 -65 -15 -9 -11 -32 -15 -82 -15 -52 0 -70 -4 -74 -15 -5 -11 -23 -15 -74 -15 -53 0 -70 -4 -84 -19 -15 -17 -29 -19 -97 -16 -63 2 -81 0 -88 -12 -7 -12 -30 -15 -124 -14 -107 2 -117 0 -129 -19 -12 -18 -23 -20 -129 -20 -91 0 -119 -3 -129 -15 -10 -12 -42 -15 -172 -15 -132 0 -160 -3 -164 -15 -5 -13 -97 -15 -739 -15 -639 0 -734 2 -745 15 -10 12 -43 15 -179 15 -128 0 -173 4 -195 15 -19 10 -59 15 -128 15 -84 0 -102 3 -120 20 -18 16 -35 19 -116 19 -77 0 -97 3 -105 16 -5 9 -16 14 -26 10 -11 -3 -25 3 -36 15 -12 13 -31 20 -55 20 -25 0 -40 5 -44 16 -3 8 -13 14 -23 12 -22 -4 -123 102 -123 129 0 12 -7 23 -15 27 -9 3 -15 18 -15 39 0 19 -7 40 -15 47 -13 11 -15 436 -15 3715 0 3282 2 3704 15 3709 11 4 15 20 15 55 0 31 6 55 15 65 10 9 15 34 15 68 0 43 4 56 21 66 14 9 18 19 14 32 -4 13 -1 22 9 26 11 4 16 19 16 45 0 28 5 41 20 49 11 6 20 21 20 34 0 13 7 27 16 30 10 4 14 14 11 25 -3 13 7 30 29 52 19 18 34 40 34 50 0 9 7 22 15 29 8 7 15 20 15 29 0 9 14 29 30 45 17 16 30 37 30 47 0 9 36 52 80 95 44 44 80 87 80 97 0 22 54 74 95 91 17 7 59 43 94 79 36 36 75 68 88 72 13 3 36 19 52 35 15 17 38 30 50 30 12 0 24 7 27 15 4 8 16 15 28 15 13 0 31 12 44 30 13 17 27 30 32 30 6 0 39 13 73 30 35 16 73 30 85 30 12 0 30 9 41 21 11 12 24 19 28 16 5 -3 24 3 41 14 18 10 46 19 63 19 17 0 32 6 36 15 4 12 15 14 48 9 36 -5 46 -2 63 16 19 21 30 23 106 21 67 -2 86 1 93 13 13 23 492 25 505 2 7 -12 26 -16 83 -16 57 0 82 -5 107 -20 26 -16 43 -19 75 -14 34 5 44 3 49 -10 4 -10 18 -16 36 -16 16 0 43 -9 60 -21 16 -12 32 -18 35 -15 4 3 17 -3 29 -15 15 -14 31 -20 48 -17 17 3 31 -1 42 -13 10 -11 22 -19 29 -19 6 0 38 -13 70 -30 32 -16 64 -30 72 -30 7 0 22 -14 35 -30 12 -17 31 -30 43 -30 12 0 36 -16 54 -35 18 -20 36 -33 41 -30 5 3 47 -30 92 -74 46 -45 88 -81 95 -81 19 0 93 -72 93 -91 0 -9 12 -27 26 -40 71 -66 129 -133 130 -150 1 -10 15 -31 33 -46 17 -15 31 -37 31 -49 0 -12 13 -34 30 -47 17 -14 30 -29 30 -33 0 -11 70 -156 84 -173 6 -7 9 -26 8 -41 -2 -15 4 -34 12 -43 9 -9 16 -23 16 -32 0 -9 9 -25 20 -37 11 -13 20 -36 20 -54 0 -17 6 -34 13 -37 10 -4 13 -20 9 -60 -4 -49 -2 -56 17 -62 19 -6 21 -14 21 -95 0 -69 3 -89 15 -94 13 -5 15 -211 17 -1747 3 -1654 4 -1742 21 -1753 13 -8 24 -7 48 7 17 9 41 17 55 17 27 0 105 38 117 57 5 8 18 10 36 7 21 -5 35 0 50 15 12 12 30 21 40 21 11 0 22 4 25 9 11 18 93 51 124 51 20 0 35 6 38 15 4 8 17 15 30 15 14 0 27 7 30 15 4 8 12 15 18 15 13 0 215 99 237 116 8 6 26 14 42 18 15 3 27 11 27 16 0 6 11 10 25 10 14 0 28 7 31 15 4 8 14 15 23 15 10 0 30 14 46 30 16 17 34 30 40 30 7 0 22 9 35 20 12 11 27 17 31 14 5 -3 23 6 40 21 17 14 47 32 65 40 19 8 34 19 34 24 0 6 14 11 30 11 17 0 30 5 30 10 0 18 39 50 61 50 11 0 32 13 46 30 13 17 30 30 36 30 18 0 77 44 77 58 0 6 4 12 10 12 5 0 22 13 37 30 14 16 34 30 43 30 8 0 37 20 63 45 27 25 52 45 56 45 5 0 33 20 63 45 30 25 60 45 66 45 6 0 74 63 152 140 77 77 147 140 155 140 17 0 65 43 65 59 0 6 5 11 11 11 19 0 219 204 219 223 0 11 62 80 140 158 77 76 140 146 140 156 0 10 14 31 30 46 17 16 30 36 30 46 0 9 23 38 51 64 30 28 49 53 46 61 -3 8 15 36 44 65 27 28 49 56 49 63 0 7 20 33 45 57 25 24 45 52 45 62 0 10 14 32 30 47 17 16 30 37 30 46 0 9 15 30 34 46 23 21 32 36 29 49 -3 13 2 24 16 33 12 7 21 22 21 34 0 12 7 27 15 34 8 7 15 20 15 30 0 10 14 30 30 43 17 14 30 32 30 39 0 8 7 23 15 34 8 10 15 29 15 41 0 13 8 24 21 28 16 5 19 12 14 32 -5 20 -1 26 15 30 16 4 20 11 16 27 -4 15 1 26 14 34 11 7 20 23 20 36 0 13 7 26 15 30 8 3 15 16 15 30 0 13 7 27 16 30 10 4 14 14 11 26 -3 11 3 26 14 36 10 9 19 25 19 34 0 10 7 23 15 30 8 7 15 29 15 50 0 29 5 39 19 43 14 3 18 11 14 26 -3 14 0 23 11 27 9 3 16 17 16 33 0 15 8 31 20 39 14 9 20 23 20 51 0 25 5 41 15 45 8 3 15 16 15 30 0 13 7 26 15 30 10 3 15 19 15 44 0 23 6 45 15 52 8 7 15 27 15 45 0 18 7 38 15 45 8 7 15 29 15 49 0 26 6 40 21 49 18 12 21 20 15 57 -4 32 -1 48 9 59 8 8 15 32 15 54 0 31 4 41 20 45 17 4 20 14 20 60 0 34 5 59 14 66 9 8 12 26 8 60 -4 42 -1 51 17 60 18 10 21 21 21 70 0 44 4 60 16 65 12 5 15 21 13 87 -2 67 1 83 14 91 14 7 17 26 17 97 0 70 3 90 15 95 12 4 15 27 15 119 0 90 3 117 15 127 13 11 15 94 15 640 0 549 -2 629 -15 634 -12 4 -15 26 -15 111 0 85 -3 107 -15 111 -12 5 -15 25 -15 94 0 69 -3 89 -15 94 -11 4 -15 21 -15 64 0 36 -6 66 -15 78 -9 12 -14 42 -15 79 0 39 -6 69 -16 83 -9 13 -17 41 -19 63 -1 23 -8 46 -14 52 -6 6 -11 35 -11 64 0 40 -5 58 -20 73 -11 11 -20 33 -20 49 0 16 -6 34 -14 40 -10 8 -14 31 -14 68 1 42 -2 57 -15 65 -11 5 -17 22 -17 42 0 19 -7 39 -15 46 -8 7 -15 25 -15 39 0 15 -7 36 -15 47 -8 10 -15 36 -15 56 0 20 -4 39 -9 42 -14 9 -51 90 -51 113 0 11 -9 32 -20 46 -11 14 -20 34 -20 45 0 11 -7 22 -15 26 -11 4 -14 13 -9 32 5 18 0 34 -15 54 -11 16 -21 33 -21 38 0 5 -7 15 -15 22 -8 7 -15 23 -15 35 0 12 -7 28 -15 35 -8 7 -15 23 -15 36 0 13 -4 24 -9 24 -9 0 -84 144 -88 170 -1 8 -7 16 -12 18 -6 2 -11 9 -11 16 0 8 -9 25 -20 39 -11 14 -20 35 -20 46 0 12 -7 24 -15 27 -8 4 -15 17 -15 29 0 15 -11 32 -30 45 -16 12 -30 28 -30 37 0 13 -13 43 -41 93 -5 8 -15 29 -23 46 -7 17 -26 40 -40 52 -15 11 -26 27 -25 34 3 25 -1 38 -12 38 -17 0 -48 43 -49 65 0 12 -13 32 -30 45 -16 14 -29 33 -30 43 0 9 -23 39 -51 66 -30 29 -48 54 -44 60 4 7 -15 32 -44 60 -28 27 -51 57 -51 67 0 11 -14 32 -30 48 -17 16 -30 33 -30 38 0 4 -7 8 -15 8 -9 0 -15 9 -15 23 0 14 -27 49 -80 101 -44 43 -80 83 -80 87 0 5 -6 9 -12 9 -7 0 -22 14 -33 30 -11 16 -24 30 -28 30 -14 0 -46 43 -47 61 0 9 -28 44 -62 77 -35 33 -103 101 -153 151 -60 61 -98 91 -112 91 -13 0 -23 4 -23 9 0 4 -32 39 -71 77 -38 38 -98 97 -132 132 -35 35 -70 62 -82 62 -11 0 -29 13 -40 30 -11 16 -25 30 -31 30 -7 0 -14 7 -18 15 -3 8 -15 15 -27 15 -12 0 -40 21 -68 50 -29 31 -54 48 -62 45 -9 -3 -34 14 -63 45 -26 27 -54 50 -62 50 -8 0 -27 14 -42 30 -18 19 -39 30 -56 30 -14 0 -26 3 -26 8 0 17 -51 61 -65 56 -8 -4 -27 9 -46 30 -17 20 -39 36 -49 36 -10 0 -23 7 -30 15 -7 8 -23 15 -35 15 -13 0 -25 7 -29 15 -3 8 -15 15 -27 15 -11 0 -33 13 -48 29 -15 16 -38 31 -51 33 -16 2 -24 11 -27 28 -2 13 -17 37 -33 52 -17 15 -30 32 -30 38 0 6 -7 22 -16 35 -9 14 -14 34 -11 45 3 11 -3 30 -14 44 -19 24 -19 69 -19 1749 0 1521 2 1726 15 1737 8 7 15 28 15 47 0 21 6 36 15 39 8 4 15 17 15 30 0 25 104 139 119 130 4 -3 22 4 39 15 18 10 41 19 50 19 10 0 27 7 38 15 28 21 246 21 264 0 z "></path></g></g></svg>