<?xml version="1.0" encoding="utf-8"?>
<!-- Generator: Adobe Illustrator 27.5.0, SVG Export Plug-In . SVG Version: 6.00 Build 0)  -->
<svg version="1.1" xmlns="http://www.w3.org/2000/svg" xmlns:xlink="http://www.w3.org/1999/xlink" x="0px" y="0px"
	 viewBox="0 0 750 500" style="enable-background:new 0 0 750 500;" xml:space="preserve">
<g id="BACKGROUND">
	<rect transform="matrix(-1 -1.224647e-16 1.224647e-16 -1 750 500)" style="fill:#ead6b3;" width="750" height="500"/>
</g>
<g id="OBJECTS">
	<g>
		<defs>
			<rect id="SVGID_1_" transform="matrix(-1 -1.224647e-16 1.224647e-16 -1 750 500)" width="750" height="500"/>
		</defs>
		<clipPath id="SVGID_00000151509183194607177190000001081365255379001474_">
			<use xlink:href="#SVGID_1_"  style="overflow:visible;"/>
		</clipPath>
		<g style="clip-path:url(#SVGID_00000151509183194607177190000001081365255379001474_);">
			<g>
				<g id="_x3C_Radial_Repeat_x3E__00000143604010040978724070000017216797061266769282_">
					<path style="fill:#d7be93;" d="M466.341,609.451c-59.553,111.811-190.775,160.893-306.84,120.795
						c2.317,1.328,4.653,2.636,7.027,3.9c123.813,65.946,277.643,19.035,343.589-104.778
						c65.946-123.813,19.035-277.643-104.778-343.589c-12.003-6.393-24.289-11.712-36.749-16.017
						C487.124,337.707,531.023,488.012,466.341,609.451z"/>
				</g>
				<g id="_x3C_Radial_Repeat_x3E__00000109020229813625305940000003804558950213642149_">
					<path style="fill:#d7be93;" d="M313.295,613.313c-102.168,74.899-241.691,62.185-328.865-24.301
						c1.511,2.202,3.049,4.394,4.639,6.563c82.939,113.136,241.889,137.615,355.025,54.676
						c113.136-82.939,137.615-241.889,54.676-355.025c-8.04-10.967-16.802-21.091-26.16-30.375
						C449.925,377.497,424.262,531.964,313.295,613.313z"/>
				</g>
				<g id="_x3C_Radial_Repeat_x3E__00000042012292212391403130000002686239749271052710_">
					<path style="fill:#d7be93;" d="M173.731,550.389C49.183,573.541-71.006,501.55-112.022,385.805
						c0.406,2.64,0.84,5.281,1.332,7.926c25.638,137.918,158.225,228.939,296.143,203.301
						c137.918-25.638,228.939-158.225,203.301-296.143c-2.485-13.37-5.987-26.293-10.39-38.718
						C399.147,397.207,309.004,525.242,173.731,550.389z"/>
				</g>
				<g id="_x3C_Radial_Repeat_x3E__00000102532178023247481580000005863119974907881610_">
					<path style="fill:#d7be93;" d="M75.289,433.141c-122.259-33.18-199.31-150.19-186.044-272.268
						c-0.779,2.555-1.535,5.123-2.239,7.719C-149.735,303.975-69.77,443.509,65.613,480.251
						c135.383,36.742,274.918-43.223,311.659-178.607c3.562-13.124,6.014-26.287,7.438-39.392
						C344.845,392.934,208.077,469.178,75.289,433.141z"/>
				</g>
				<g id="_x3C_Radial_Repeat_x3E__00000093170676881712779670000017594265402858506368_">
					<path style="fill:#d7be93;" d="M37.468,284.792C-58.287,201.852-76.939,62.999-12.019-41.234
						c-1.811,1.964-3.605,3.95-5.366,5.983c-91.844,106.035-80.34,266.447,25.695,358.29s266.446,80.34,358.29-25.695
						c8.903-10.279,16.823-21.074,23.792-32.263C297.775,365.523,141.47,374.875,37.468,284.792z"/>
				</g>
				<g id="_x3C_Radial_Repeat_x3E__00000098219323005537574460000005332387117672971417_">
					<path style="fill:#d7be93;" d="M67.759,134.724C17.473,18.451,60.915-114.745,164.63-180.487
						c-2.483,0.984-4.962,1.994-7.431,3.062C28.445-121.741-30.79,27.777,24.894,156.531s205.202,187.99,333.957,132.306
						c12.482-5.398,24.301-11.688,35.435-18.745C267.26,320.403,122.376,261.01,67.759,134.724z"/>
				</g>
				<g id="_x3C_Radial_Repeat_x3E__00000140710758050363877270000017074979059083403392_">
					<path style="fill:#d7be93;" d="M160.162,12.661c5.143-126.577,102.073-227.734,224.043-241.965
						c-2.664-0.191-5.336-0.356-8.023-0.465C236.017-235.464,117.774-126.455,112.08,13.71
						c-5.695,140.165,103.315,258.407,243.479,264.102c13.588,0.552,26.966,0.014,40.059-1.514
						C259.343,266.512,154.576,150.138,160.162,12.661z"/>
				</g>
				<g id="_x3C_Radial_Repeat_x3E__00000092447756446338206170000004945736936659493042_">
					<path style="fill:#d7be93;" d="M296.375-57.222c59.553-111.81,190.775-160.893,306.841-120.794
						c-2.317-1.328-4.653-2.636-7.027-3.9c-123.813-65.946-277.643-19.035-343.589,104.778
						C186.654,46.674,233.564,200.504,357.377,266.45c12.003,6.393,24.29,11.712,36.749,16.017
						C275.592,214.522,231.694,64.217,296.375-57.222z"/>
				</g>
				<g id="_x3C_Radial_Repeat_x3E__00000085948632759496818020000007477402574954015626_">
					<path style="fill:#d7be93;" d="M449.421-61.084c102.168-74.899,241.691-62.185,328.865,24.301
						c-1.511-2.202-3.048-4.394-4.639-6.563c-82.939-113.136-241.889-137.615-355.025-54.676
						c-113.136,82.939-137.615,241.889-54.676,355.025c8.04,10.967,16.802,21.091,26.16,30.375
						C312.79,174.732,338.454,20.265,449.421-61.084z"/>
				</g>
				<g id="_x3C_Radial_Repeat_x3E__00000061455168475964253990000011228823549501952949_">
					<path style="fill:#d7be93;" d="M588.985,1.84c124.548-23.152,244.737,48.839,285.753,164.583
						c-0.406-2.64-0.84-5.281-1.332-7.926C847.768,20.58,715.18-70.441,577.263-44.803S348.324,113.422,373.962,251.34
						c2.485,13.37,5.987,26.293,10.39,38.718C363.568,155.021,453.711,26.986,588.985,1.84z"/>
				</g>
				<g id="_x3C_Radial_Repeat_x3E__00000088134359362583904020000002928277267647124870_">
					<path style="fill:#d7be93;" d="M687.427,119.088c122.259,33.18,199.31,150.19,186.044,272.268
						c0.779-2.555,1.534-5.123,2.239-7.719c36.742-135.383-43.223-274.918-178.607-311.66
						C561.72,35.236,422.186,115.201,385.444,250.584c-3.562,13.124-6.014,26.287-7.438,39.392
						C417.871,159.295,554.64,83.051,687.427,119.088z"/>
				</g>
				<g id="_x3C_Radial_Repeat_x3E__00000062897770480783217750000015242770102658768305_">
					<path style="fill:#d7be93;" d="M725.247,267.436c95.755,82.94,114.408,221.794,49.487,326.027
						c1.811-1.964,3.605-3.95,5.366-5.983c91.844-106.035,80.339-266.446-25.695-358.29
						c-106.035-91.844-266.447-80.34-358.29,25.695c-8.903,10.279-16.823,21.074-23.793,32.264
						C464.941,186.706,621.246,177.354,725.247,267.436z"/>
				</g>
				<g id="_x3C_Radial_Repeat_x3E__00000039124030337312583880000011829898555243267737_">
					<path style="fill:#d7be93;" d="M694.956,417.504c50.286,116.273,6.845,249.469-96.871,315.212
						c2.483-0.983,4.962-1.994,7.431-3.062c128.755-55.684,187.99-205.202,132.306-333.957S532.62,207.707,403.865,263.391
						c-12.482,5.398-24.301,11.688-35.435,18.745C495.455,231.826,640.339,291.218,694.956,417.504z"/>
				</g>
				<g id="_x3C_Radial_Repeat_x3E__00000140010195537611412240000010633376370017011085_">
					<path style="fill:#d7be93;" d="M602.554,539.568c-5.143,126.577-102.073,227.734-224.043,241.965
						c2.664,0.191,5.336,0.356,8.023,0.465c140.165,5.695,258.407-103.315,264.102-243.479
						c5.695-140.165-103.315-258.407-243.479-264.102c-13.588-0.552-26.966-0.014-40.059,1.514
						C503.373,285.717,608.139,402.091,602.554,539.568z"/>
				</g>
			</g>
			<g>
				<g id="_x3C_Radial_Repeat_x3E__00000157294339683794821540000010513584968054141842_">
					<path style="fill:#bca06f;" d="M562.29,568.688C538.965,693.203,428.472,779.339,305.724,775.85
						c2.609,0.573,5.229,1.121,7.873,1.616c137.882,25.829,270.596-65.007,296.425-202.889
						c25.829-137.882-65.007-270.596-202.889-296.425c-13.366-2.504-26.683-3.898-39.859-4.273
						C500.717,303.196,587.624,433.449,562.29,568.688z"/>
				</g>
				<g id="_x3C_Radial_Repeat_x3E__00000060012003927848936530000003190040481847449768_">
					<path style="fill:#bca06f;" d="M417.429,618.217c-75.041,102.064-211.965,131.729-321.042,75.327
						c2.102,1.648,4.225,3.279,6.392,4.872c113.02,83.096,272.004,58.838,355.1-54.183c83.096-113.02,58.838-272.004-54.183-355.1
						c-10.956-8.055-22.349-15.089-34.058-21.144C477.146,352.302,498.932,507.364,417.429,618.217z"/>
				</g>
				<g id="_x3C_Radial_Repeat_x3E__00000051373404664385726490000017145211995622608807_">
					<path style="fill:#bca06f;" d="M265.425,599.989c-111.893,59.398-248.129,26.715-321.932-71.428
						c1.178,2.397,2.384,4.787,3.645,7.163C12.911,659.628,166.676,706.753,290.58,640.979S461.609,421.44,395.836,297.536
						c-6.376-12.012-13.588-23.292-21.511-33.827C434.604,386.318,386.954,535.476,265.425,599.989z"/>
				</g>
				<g id="_x3C_Radial_Repeat_x3E__00000063597611009072922450000000280933970352073401_">
					<path style="fill:#bca06f;" d="M136.382,517.614C9.798,522.58-98.766,434.024-122.678,313.578
						c0.022,2.671,0.071,5.347,0.176,8.035c5.5,140.172,123.591,249.346,263.763,243.846
						c140.172-5.5,249.346-123.591,243.846-263.763c-0.533-13.589-2.137-26.881-4.704-39.811
						C381.515,398.507,273.866,512.219,136.382,517.614z"/>
				</g>
				<g id="_x3C_Radial_Repeat_x3E__00000120527441887307995390000006780302925928565134_">
					<path style="fill:#bca06f;" d="M55.859,387.407C-60.344,336.959-119.733,210.069-89.018,91.175
						c-1.139,2.416-2.257,4.848-3.328,7.315c-55.863,128.677,3.164,278.277,131.841,334.14s278.277-3.164,334.14-131.841
						c5.415-12.474,9.738-25.146,13.035-37.909C328.395,386.455,182.069,442.199,55.859,387.407z"/>
				</g>
				<g id="_x3C_Radial_Repeat_x3E__00000022536184517012258790000013226357729066705083_">
					<path style="fill:#bca06f;" d="M39.806,235.156c-82.807-95.871-81.26-235.963-2-329.755c-2.075,1.682-4.137,3.389-6.172,5.147
						C-74.527,2.244-86.255,162.64,5.442,268.802s252.092,117.889,358.254,26.193c10.291-8.889,19.684-18.431,28.193-28.499
						C285.766,352.547,129.744,339.283,39.806,235.156z"/>
				</g>
				<g id="_x3C_Radial_Repeat_x3E__00000163039884880880083530000005172545802300425108_">
					<path style="fill:#bca06f;" d="M91.401,91.019c-33.01-122.305,29.168-247.852,141.274-297.966
						c-2.599,0.616-5.197,1.259-7.794,1.96C89.447-168.435,9.288-29.012,45.841,106.422
						c36.553,135.434,175.977,215.593,311.411,179.04c13.129-3.544,25.732-8.065,37.766-13.444
						C262.069,303.503,127.254,223.856,91.401,91.019z"/>
				</g>
				<g id="_x3C_Radial_Repeat_x3E__00000162352087217672546610000013185534892690603156_">
					<path style="fill:#bca06f;" d="M200.426-16.459c23.325-124.515,133.819-210.652,256.566-207.162
						c-2.609-0.573-5.229-1.121-7.872-1.616C311.238-251.066,178.524-160.23,152.694-22.348s65.007,270.596,202.889,296.425
						c13.367,2.504,26.683,3.898,39.859,4.273C261.999,249.033,175.092,118.78,200.426-16.459z"/>
				</g>
				<g id="_x3C_Radial_Repeat_x3E__00000060715670615541967680000005709200156012475023_">
					<path style="fill:#bca06f;" d="M345.287-65.988c75.041-102.064,211.965-131.729,321.042-75.327
						c-2.102-1.648-4.224-3.279-6.391-4.872c-113.02-83.096-272.004-58.838-355.1,54.183S246,180,359.02,263.096
						c10.956,8.055,22.349,15.09,34.058,21.144C285.57,199.927,263.784,44.865,345.287-65.988z"/>
				</g>
				<g id="_x3C_Radial_Repeat_x3E__00000168110771077252264820000004946199642219433634_">
					<path style="fill:#bca06f;" d="M497.291-47.76c111.893-59.398,248.129-26.716,321.932,71.428
						c-1.178-2.397-2.384-4.787-3.645-7.163C749.805-107.399,596.04-154.524,472.135-88.75
						C348.231-22.976,301.106,130.788,366.88,254.693c6.376,12.011,13.588,23.292,21.511,33.827
						C328.112,165.911,375.762,16.753,497.291-47.76z"/>
				</g>
				<g id="_x3C_Radial_Repeat_x3E__00000140010303647882045150000001975658399796636578_">
					<path style="fill:#bca06f;" d="M626.335,34.615c126.584-4.967,235.148,83.589,259.06,204.036
						c-0.022-2.671-0.071-5.347-0.176-8.035C879.719,90.443,761.628-18.73,621.455-13.23
						c-140.172,5.5-249.346,123.591-243.846,263.763c0.533,13.588,2.137,26.881,4.704,39.811
						C381.201,153.722,488.85,40.009,626.335,34.615z"/>
				</g>
				<g id="_x3C_Radial_Repeat_x3E__00000179609028714194926070000001061941038383929994_">
					<path style="fill:#bca06f;" d="M706.857,164.822C823.06,215.27,882.449,342.16,851.733,461.054
						c1.139-2.416,2.256-4.848,3.328-7.315c55.863-128.677-3.164-278.277-131.841-334.141
						c-128.677-55.863-278.277,3.164-334.14,131.841c-5.415,12.474-9.738,25.146-13.035,37.909
						C434.32,165.774,580.646,110.03,706.857,164.822z"/>
				</g>
				<g id="_x3C_Radial_Repeat_x3E__00000087379163837264024170000006264473453321365917_">
					<path style="fill:#bca06f;" d="M722.909,317.073c82.807,95.871,81.26,235.963,2,329.755c2.074-1.682,4.137-3.389,6.172-5.147
						c106.162-91.696,117.889-252.092,26.193-358.254S505.182,165.538,399.02,257.234c-10.292,8.889-19.684,18.431-28.193,28.499
						C476.949,199.682,632.971,212.946,722.909,317.073z"/>
				</g>
				<g id="_x3C_Radial_Repeat_x3E__00000026135032674579399880000002820177574758614430_">
					<path style="fill:#bca06f;" d="M671.314,461.211c33.01,122.305-29.168,247.852-141.274,297.967
						c2.599-0.616,5.197-1.259,7.794-1.96c135.434-36.553,215.593-175.977,179.04-311.411
						c-36.553-135.434-175.977-215.593-311.411-179.04c-13.129,3.543-25.732,8.065-37.766,13.444
						C500.646,248.727,635.462,328.373,671.314,461.211z"/>
				</g>
			</g>
		</g>
	</g>
</g>
</svg>
