<svg class="img-fluid" id="outputsvg" xmlns="http://www.w3.org/2000/svg" style="transform: matrix(1, 0, 0, 1, 0, 0); transform-origin: 50% 50%; cursor: move;" width="2052" height="1288" viewBox="0 0 20520 12880"><g id="lpYux3pD3EG3Ks4GUw9tzn" fill="#ffffff00" style="transform: none;"><g><path id="pXFxwbES4" d="M0 6440 l0 -6440 45 0 c38 0 45 3 45 20 0 11 -7 20 -16 20 -18 0 -18 -3 31 296 170 1024 499 1681 909 1813 95 31 135 34 221 16 154 -32 288 -113 443 -266 156 -155 284 -339 497 -715 65 -115 227 -282 331 -342 119 -69 274 -111 407 -112 34 0 47 -4 47 -14 0 -8 -5 -18 -10 -21 -5 -3 -10 -22 -10 -41 0 -24 -5 -34 -15 -34 -10 0 -15 -11 -15 -35 0 -33 2 -35 35 -35 34 0 35 2 36 38 1 20 3 29 6 20 2 -9 14 -18 25 -20 29 -4 36 -28 9 -28 -17 0 -21 -6 -21 -30 0 -16 -4 -30 -10 -30 -11 0 -13 -33 -4 -78 4 -20 14 -34 28 -38 11 -4 24 -11 27 -17 11 -16 119 1 119 19 0 8 7 17 15 20 11 5 15 22 15 65 0 59 0 59 30 59 17 0 30 -4 30 -10 0 -5 11 -10 25 -10 14 0 25 -4 25 -10 0 -5 7 -10 15 -10 9 0 15 -9 15 -25 0 -22 4 -25 35 -25 24 0 35 5 35 15 0 8 7 15 15 15 11 0 15 12 15 44 0 24 -5 46 -10 48 -7 2 -7 15 0 38 5 19 10 47 10 62 0 25 -4 28 -34 28 -31 0 -34 -3 -40 -35 -4 -21 -13 -35 -21 -35 -8 0 -15 5 -15 10 0 6 -16 10 -35 10 -28 0 -35 -4 -35 -20 0 -16 -7 -20 -30 -20 -16 0 -30 5 -30 10 0 6 9 10 20 10 13 0 20 7 20 20 0 13 7 20 19 20 38 0 51 11 51 45 0 24 -5 35 -17 38 -11 3 -7 5 10 6 24 1 27 5 27 34 0 30 5 35 48 56 105 51 220 138 337 256 276 276 342 400 660 1245 404 1071 642 1547 945 1887 185 209 414 328 593 309 83 -8 213 -55 299 -107 165 -100 272 -233 510 -634 337 -565 422 -692 583 -863 195 -207 373 -290 599 -280 121 6 184 24 302 84 115 59 141 80 221 172 130 153 254 356 571 937 527 967 799 1371 1145 1702 187 178 442 347 675 447 76 33 82 34 82 16 0 -17 7 -20 45 -20 45 0 45 0 45 34 0 33 2 35 53 49 144 42 222 51 397 51 193 0 288 -13 459 -64 169 -51 181 -57 181 -96 0 -33 1 -34 40 -34 29 0 40 4 40 15 0 8 3 15 6 15 3 0 54 -25 112 -55 146 -75 449 -263 601 -373 457 -331 1031 -899 1712 -1692 406 -472 803 -751 1139 -801 116 -17 296 -7 385 21 158 50 290 136 427 276 97 100 145 161 242 304 125 185 149 243 211 515 80 350 138 811 235 1885 173 1912 275 2700 451 3475 204 900 496 1536 842 1836 422 365 883 344 1526 -69 166 -107 431 -314 431 -337 0 -12 21 -25 41 -25 5 0 9 392 9 980 l0 980 -10260 0 -10260 0 0 -6440z m3150 -5760 c0 -5 -7 -10 -15 -10 -8 0 -15 5 -15 10 0 6 7 10 15 10 8 0 15 -4 15 -10z"></path><path id="p1IUvosbo" d="M3230 419 c0 -39 20 -59 59 -59 28 0 31 3 31 31 0 39 -20 59 -59 59 -28 0 -31 -3 -31 -31z"></path></g></g><g id="l4GlSUwtMNcncFO8VXa1jvW" fill="#fbc7e1" style="transform: none;"><g><path id="pdAmanMGg" d="M18945 11623 c-525 -112 -926 -678 -1209 -1703 -229 -831 -350 -1682 -546 -3850 -97 -1074 -155 -1535 -235 -1885 -62 -272 -86 -330 -211 -515 -97 -143 -145 -204 -242 -304 -407 -418 -861 -407 -1417 35 -117 92 -341 314 -474 469 -681 793 -1255 1361 -1712 1692 -69 50 -209 142 -310 205 -484 300 -813 405 -1224 390 -302 -11 -562 -95 -870 -282 -319 -194 -567 -442 -862 -860 -178 -253 -354 -551 -675 -1140 -236 -433 -321 -580 -423 -735 -89 -134 -194 -263 -247 -303 -50 -38 -204 -114 -267 -133 -236 -68 -470 18 -696 258 -161 171 -246 298 -583 863 -238 401 -345 534 -510 634 -327 197 -661 127 -952 -202 -303 -340 -541 -816 -945 -1887 -318 -845 -384 -969 -660 -1245 -153 -154 -302 -254 -460 -310 -27 -9 -57 -20 -65 -23 -24 -8 -40 -11 -137 -23 -159 -19 -328 17 -477 103 -104 60 -266 227 -331 342 -128 225 -243 410 -320 512 -529 698 -1091 633 -1469 -168 -179 -377 -295 -829 -391 -1520 l-5 -38 10250 0 10250 0 0 5464 c0 4682 -2 5468 -14 5497 -20 48 -239 224 -437 351 -265 170 -471 262 -698 309 -114 23 -321 25 -426 2z"></path></g></g></svg>